<svg width="44" height="58" viewBox="0 0 44 58" fill="none" xmlns="http://www.w3.org/2000/svg"><path d="M2.768 13.756h8.222L4.597 29.392s-3.341-.054-4.363-2.974a4.64 4.64 0 0 1-.07-2.68l2.604-9.982Z" fill="#D53127"/><path d="m34.655 14.09-10.454-.181 2.352-7.76A4.76 4.76 0 0 0 22.015 0h-9.541L1.564 39.181s-3.908 16.756 10.91 18.273c0 0 23.425 4.789 30.941-23.516 0 0 3.967-17.12-8.76-19.847ZM27.51 33.524s-.418 7.229-5.873 8.498a3.534 3.534 0 0 1-2.403-.247c-.855-.437-1.739-1.342-1.717-3.24a6.113 6.113 0 0 1 .262-1.618l2.015-7.524h5.498s2.49.811 2.218 4.131Z" fill="#F47320"/><path d="M43.917 26.047c-1-11.502-9.262-11.957-9.262-11.957l-10.454-.181-4.491 15.574h5.483c1.008.055 2.844 1.716 2.248 4.658" fill="url(#a)"/><defs><linearGradient id="a" x1="41.997" y1="41.432" x2="25.521" y2="16.149" gradientUnits="userSpaceOnUse"><stop offset=".41" stop-color="#F47320"/><stop offset=".5" stop-color="#F16D21"/><stop offset=".62" stop-color="#E95C22"/><stop offset=".75" stop-color="#DC4125"/><stop offset=".81" stop-color="#D53127"/></linearGradient></defs></svg>