<svg width="24" height="24" viewBox="0 0 24 24" fill="none" xmlns="http://www.w3.org/2000/svg">
  <circle cx="12" cy="12" r="12" fill="#6FB0E8"/>
  <path fill-rule="evenodd" clip-rule="evenodd" d="M16.512 5.875a.875.875 0 1 0-1.75 0v1.294H13.47a.875.875 0 1 0 0 1.75h1.292v1.291a.875.875 0 0 0 1.75 0V8.92h1.294a.875.875 0 1 0 0-1.75h-1.294V5.875Zm-5.045 2.268a.875.875 0 1 0 0-1.75 5.97 5.97 0 1 0 5.971 5.969.875.875 0 0 0-1.75 0 4.218 4.218 0 1 1-4.22-4.22Zm.739 1.73a2.538 2.538 0 1 0 1.3 4.285.875.875 0 1 0-1.237-1.239.788.788 0 1 1 0-1.115.875.875 0 0 0 1.236-1.238 2.538 2.538 0 0 0-1.3-.694Z" fill="#fff"/>
</svg>
