<svg version="1.1" id="Layer_1" xmlns="http://www.w3.org/2000/svg" x="0" y="0" viewBox="0 0 268.9 139.1" xml:space="preserve"><path class="st1" d="M197 95.2c14.2 0 25.7-11.6 25.7-25.8 0-14.2-11.6-25.7-25.8-25.7-14.2 0-25.7 11.6-25.7 25.8 0 14.2 11.6 25.7 25.8 25.7zM72 110.5c-22.5.1-40.9-18.2-40.9-40.7C31 47.3 49.2 29 71.8 28.9c15.1 0 28.3 8.1 35.4 20.3L126 38.3C115.1 19.7 94.9 7.1 71.7 7.2 37.2 7.3 9.3 35.3 9.3 69.9c.1 34.5 28.2 62.5 62.7 62.4 23.1-.1 43.3-12.7 54.1-31.4L107.3 90c-7 12.3-20.2 20.5-35.3 20.5z"/><path class="st1" d="M92.9 84.7c11.9-16.6 38.6-11.3 45.7 7.2 9 23.5 31.8 40.1 58.5 40.1 34.5-.1 62.5-28.2 62.4-62.7-.1-34.6-28.2-62.5-62.7-62.4-26.7.1-49.5 16.9-58.4 40.5-7.4 19.6-33.3 23.4-46 6.7-4.7-6.2-12.2-10.2-20.6-10.1-14.2 0-25.7 11.6-25.7 25.8C46.2 84 57.7 95.5 72 95.5c8.6 0 16.2-4.3 20.9-10.8zm104.2 25.5c-22.5.1-40.9-18.2-40.9-40.7-.1-22.5 18.2-40.9 40.7-40.9 22.5-.1 40.9 18.2 40.9 40.7 0 22.5-18.2 40.9-40.7 40.9z"/></svg>