<svg id="Layer_1" data-name="Layer 1" xmlns="http://www.w3.org/2000/svg" viewBox="0 0 226.77 127.56"><defs><style>.cls-1,.cls-2{fill:#1d428a}.cls-2{fill-rule:evenodd}</style></defs><path class="cls-1" d="M47.47 106.76q0-8.76 4.89-13.64T66 88.23q8.94 0 13.77 4.8t4.83 13.44a22 22 0 01-2.11 10.29 15 15 0 01-6.1 6.24 20.14 20.14 0 01-10 2.24 23 23 0 01-10-1.93 15.12 15.12 0 01-6.43-6.1 20.33 20.33 0 01-2.49-10.45zm11.06 0q0 5.41 2 7.79A6.82 6.82 0 0066 117a6.79 6.79 0 005.51-2.32c1.3-1.54 1.95-4.32 1.95-8.32q0-5.05-2-7.38a7 7 0 00-5.53-2.33A6.74 6.74 0 0060.56 99q-2.02 2.34-2.03 7.81zM95.58 88.84h10.32l13.48 19.8v-19.8h10.42v35.79h-10.42L106 105v19.65H95.58zM165.43 88.84h11v21.32a17.92 17.92 0 01-1 6 13.06 13.06 0 01-3.1 4.93 12.39 12.39 0 01-4.43 3 22.24 22.24 0 01-7.74 1.2 47.5 47.5 0 01-5.7-.37 14.86 14.86 0 01-5.16-1.45 12.87 12.87 0 01-3.8-3.08 11.41 11.41 0 01-2.35-4.13 21.11 21.11 0 01-1-6V88.84h11v21.83a6.23 6.23 0 001.63 4.57 7 7 0 009 0 6.23 6.23 0 001.62-4.6zM188.86 88.84h10.33l13.47 19.8v-19.8h10.42v35.79h-10.42L199.26 105v19.65h-10.4zM20.23 96.71a8.1 8.1 0 011.81-.2 6.63 6.63 0 013 .68 6.52 6.52 0 012.27 2 8.59 8.59 0 011.07 2.4l9.76-2.18A16 16 0 0032.41 91q-3.87-2.75-10.63-2.74c-.53 0-1 0-1.55.06zM28.81 110a11.1 11.1 0 01-2.36 5.18 6.19 6.19 0 01-4.8 1.78 6.18 6.18 0 01-5.07-2.21q-1.81-2.2-1.81-8.15a19.5 19.5 0 01.41-4.27H4a27 27 0 00-.33 4.34 20.23 20.23 0 002.68 10.93 15.12 15.12 0 006.39 6 23 23 0 009.53 1.7 19.66 19.66 0 007.92-1.39 13.44 13.44 0 005.21-4.13 17.82 17.82 0 003.08-6.81z"/><path class="cls-2" d="M156.2 53a14.8 14.8 0 10-14.8-14.8A14.82 14.82 0 00156.2 53zM84.36 61.68a23.44 23.44 0 1120.3-35.16l10.81-6.25a35.93 35.93 0 100 35.93L104.66 50a23.42 23.42 0 01-20.3 11.72z"/><path class="cls-2" d="M96.38 46.87c6.87-9.54 22.2-6.42 26.26 4.2a35.92 35.92 0 100-25.56 15.24 15.24 0 01-26.43 3.8 14.81 14.81 0 10.21 17.56zm59.82 14.81a23.44 23.44 0 1123.43-23.44 23.44 23.44 0 01-23.43 23.44z"/></svg>