<svg width="18" height="18" viewBox="0 0 18 18" fill="none" xmlns="http://www.w3.org/2000/svg"><path d="M10.912 8.473c-.6 0-1.082.488-1.09 1.1-.006.622.461 1.118 1.059 1.125.594.01 1.083-.482 1.093-1.097.014-.605-.478-1.128-1.062-1.128ZM7.063 8.472c-.605-.007-1.1.493-1.104 1.111-.004.609.482 1.115 1.076 1.118.597 0 1.075-.488 1.079-1.107 0-.615-.468-1.114-1.051-1.122Z" fill="#fff"/><path d="M9 0a9 9 0 0 0-9 9 9 9 0 0 0 9 9 9 9 0 0 0 9-9 9 9 0 0 0-9-9Zm6.033 11.827c-.816.843-1.825 1.251-2.981 1.321-.123.008-.208-.02-.285-.12-.176-.231-.366-.453-.566-.702.706-.229 1.329-.538 1.796-1.104-2.675 1.547-5.354 1.41-8.043.039.45.573 1.054.893 1.736 1.118-.214.267-.422.527-.633.78a.189.189 0 0 1-.137.05c-1.058-.046-2.004-.366-2.777-1.126a.915.915 0 0 1-.299-.76c.092-1.884.594-3.652 1.452-5.329a.66.66 0 0 1 .2-.228c.788-.545 1.65-.886 2.606-.97.098-.008.2.017.298.027-.003.029-.003.057-.007.085-.924.239-1.803.576-2.555 1.188 2.745-1.195 5.473-1.17 8.201.074-.274-.32-1.093-.72-2.464-1.255.08-.035.165-.106.246-.102 1.02.053 1.923.425 2.75 1.012.045.032.077.088.105.138.9 1.743 1.427 3.585 1.48 5.558a.388.388 0 0 1-.123.306Z" fill="#fff"/></svg>