<svg viewBox="0 0 20 22" xmlns="http://www.w3.org/2000/svg"><path fill-rule="evenodd" clip-rule="evenodd" d="M1.673 0a1 1 0 0 0-1 1v16.05a1 1 0 0 0 1 1H5.69V21a1 1 0 0 0 1 1h11.637a1 1 0 0 0 1-1V4.95a1 1 0 0 0-1-1H14.31V1a1 1 0 0 0-1-1H1.673Zm9.519 3.952a.995.995 0 0 0-.654.291l-.257.258-.031-.001h-5.5a.75.75 0 0 0 0 1.5h4.031l-2.5 2.5H4.75a.75.75 0 0 0 0 1.5h.94v2.5h-.94a.75.75 0 0 0 0 1.5h.94v2.05H2.673V2h9.637v1.95h-1.065c-.017 0-.035 0-.053.002ZM9.11 8.5H10.246V7.364L9.11 8.5Zm6.14 1.5h-3.135a1 1 0 0 1-.87.505H7.69V20h9.637V5.95h-5.081V8.5h3.004a.75.75 0 0 1 0 1.5Zm-5.5 2.5a.75.75 0 0 0 0 1.5h5.5a.75.75 0 0 0 0-1.5h-5.5ZM9 17.25a.75.75 0 0 1 .75-.75h5.5a.75.75 0 0 1 0 1.5h-5.5a.75.75 0 0 1-.75-.75Z" /></svg>