<svg viewBox="0 0 32 32" fill="none" xmlns="http://www.w3.org/2000/svg"><g filter="url(#filter0_d)" shape-rendering="crispEdges"><path d="M16 27c6.627 0 12-5.373 12-12S22.627 3 16 3 4 8.373 4 15s5.373 12 12 12z" fill="url(#paint0_angular)"/><path d="M16 27c6.627 0 12-5.373 12-12S22.627 3 16 3 4 8.373 4 15s5.373 12 12 12z" fill="url(#paint1_linear)"/><path d="M16 27c6.627 0 12-5.373 12-12S22.627 3 16 3 4 8.373 4 15s5.373 12 12 12z" fill="url(#paint2_angular)"/><path d="M16 27c6.627 0 12-5.373 12-12S22.627 3 16 3 4 8.373 4 15s5.373 12 12 12z" fill="url(#paint3_linear)"/></g><g filter="url(#filter1_d)"><path fill-rule="evenodd" clip-rule="evenodd" d="M18.95 8.187a1.25 1.25 0 01-.136 1.762L12.92 15l5.893 5.051a1.25 1.25 0 01-1.628 1.898l-7-6a1.25 1.25 0 010-1.898l7-6a1.25 1.25 0 011.763.136z" fill="#fff"/></g><defs><radialGradient id="paint0_angular" cx="0" cy="0" r="1" gradientUnits="userSpaceOnUse" gradientTransform="rotate(137.121 16.982 3.783) scale(38.2099 35.5748)"><stop offset=".081" stop-color="#FF75A9" stop-opacity=".47"/><stop offset=".64" stop-color="#FF8A82" stop-opacity=".45"/><stop offset=".916" stop-color="#FF56E4" stop-opacity=".51"/></radialGradient><radialGradient id="paint2_angular" cx="0" cy="0" r="1" gradientUnits="userSpaceOnUse" gradientTransform="rotate(137.121 16.982 3.783) scale(38.2099 35.5748)"><stop offset=".081" stop-color="#FF75A9" stop-opacity=".47"/><stop offset=".64" stop-color="#FF8A82" stop-opacity=".45"/><stop offset=".916" stop-color="#FF56E4" stop-opacity=".51"/></radialGradient><linearGradient id="paint1_linear" x1="32" y1="-1.5" x2="8.059" y2="23.07" gradientUnits="userSpaceOnUse"><stop stop-color="#3EC6EB" stop-opacity=".79"/><stop offset="1" stop-color="#3EC6EB" stop-opacity=".34"/></linearGradient><linearGradient id="paint3_linear" x1="32" y1="-1.5" x2="8.059" y2="23.07" gradientUnits="userSpaceOnUse"><stop stop-color="#3EC6EB" stop-opacity=".79"/><stop offset="1" stop-color="#3EC6EB" stop-opacity=".34"/></linearGradient><filter id="filter0_d" x="0" y="0" width="32" height="32" filterUnits="userSpaceOnUse" color-interpolation-filters="sRGB"><feFlood flood-opacity="0" result="BackgroundImageFix"/><feColorMatrix in="SourceAlpha" values="0 0 0 0 0 0 0 0 0 0 0 0 0 0 0 0 0 0 127 0" result="hardAlpha"/><feOffset dy="1"/><feGaussianBlur stdDeviation="2"/><feComposite in2="hardAlpha" operator="out"/><feColorMatrix values="0 0 0 0 0.670588 0 0 0 0 0.670588 0 0 0 0 0.670588 0 0 0 0.8 0"/><feBlend in2="BackgroundImageFix" result="effect1_dropShadow"/><feBlend in="SourceGraphic" in2="effect1_dropShadow" result="shape"/></filter><filter id="filter1_d" x="8.25" y="6.25" width="13.5" height="18.5" filterUnits="userSpaceOnUse" color-interpolation-filters="sRGB"><feFlood flood-opacity="0" result="BackgroundImageFix"/><feColorMatrix in="SourceAlpha" values="0 0 0 0 0 0 0 0 0 0 0 0 0 0 0 0 0 0 127 0" result="hardAlpha"/><feOffset dx=".5" dy=".5"/><feGaussianBlur stdDeviation="1"/><feComposite in2="hardAlpha" operator="out"/><feColorMatrix values="0 0 0 0 0.670588 0 0 0 0 0.670588 0 0 0 0 0.670588 0 0 0 0.6 0"/><feBlend in2="BackgroundImageFix" result="effect1_dropShadow"/><feBlend in="SourceGraphic" in2="effect1_dropShadow" result="shape"/></filter></defs></svg>