<svg viewBox="0 0 100 100" fill="none" xmlns="http://www.w3.org/2000/svg"><path d="M50 100c27.614 0 50-22.386 50-50S77.614 0 50 0 0 22.386 0 50s22.386 50 50 50Z" fill="#fff"/><path d="M77 50.163c0-2.265-.184-3.918-.582-5.632H50.551v10.224h15.184c-.306 2.54-1.96 6.367-5.633 8.939l-.051.342 8.178 6.336.567.057C74 65.622 77 58.55 77 50.163" fill="#4285F4"/><path d="M50.551 77.102c7.439 0 13.683-2.45 18.245-6.673l-8.694-6.735c-2.326 1.622-5.449 2.755-9.551 2.755-7.286 0-13.47-4.806-15.674-11.449l-.323.027-8.504 6.582-.111.31c4.53 9 13.836 15.183 24.612 15.183Z" fill="#34A853"/><path d="M34.877 55a16.961 16.961 0 0 1-.918-5.449c0-1.898.337-3.735.888-5.449l-.016-.365-8.61-6.687-.282.134A27.576 27.576 0 0 0 23 49.55c0 4.439 1.071 8.633 2.939 12.367L34.877 55" fill="#FBBC05"/><path d="M50.551 32.653c5.173 0 8.663 2.235 10.653 4.102l7.776-7.592C64.204 24.724 57.99 22 50.55 22c-10.776 0-20.082 6.184-24.612 15.184l8.908 6.918c2.235-6.643 8.418-11.449 15.704-11.449" fill="#EB4335"/></svg>