<svg viewBox="0 0 12 12" fill="none" xmlns="http://www.w3.org/2000/svg"><path d="M6 12A6 6 0 1 0 6 0a6 6 0 0 0 0 12Z" fill="#BAC1D2"/><path d="M6.456 2.16c.072 0 .144.024.216.096.048.048.096.12.096.216v.84a.293.293 0 0 1-.096.216.304.304 0 0 1-.216.096H5.52a.293.293 0 0 1-.216-.096.304.304 0 0 1-.096-.216v-.84c0-.072.024-.144.096-.216a.308.308 0 0 1 .24-.096h.912Zm.24 7.392a.293.293 0 0 1-.096.216.273.273 0 0 1-.192.072h-.816a.293.293 0 0 1-.216-.096.304.304 0 0 1-.096-.216v-5.04c0-.072.024-.144.096-.216a.304.304 0 0 1 .216-.096h.816c.072 0 .144.024.216.096.048.048.096.12.096.216v5.064h-.024Z" fill="#fff"/></svg>