<svg viewBox="0 0 100 100" fill="none" xmlns="http://www.w3.org/2000/svg"><path d="M50 100c27.614 0 50-22.386 50-50S77.614 0 50 0 0 22.386 0 50s22.386 50 50 50Z" fill="#FFE812"/><path d="M50.361 28C35.811 28 24 37.302 24 48.785c0 7.427 4.943 13.94 12.344 17.616-.406 1.394-2.585 8.948-2.687 9.556 0 0-.05.456.228.608.28.178.634.051.634.051.837-.127 9.607-6.286 11.128-7.35 1.52.202 3.092.329 4.689.329 14.55 0 26.36-9.303 26.36-20.785C76.723 37.302 64.91 28 50.362 28Z" fill="#000"/><path d="M35.786 56.06c-.836 0-1.52-.66-1.52-1.445V45.59h-2.383a1.498 1.498 0 0 1-1.495-1.495c0-.812.659-1.496 1.495-1.496h7.781c.812 0 1.496.659 1.496 1.495 0 .812-.659 1.496-1.495 1.496h-2.383v9.024c.025.785-.66 1.444-1.496 1.444ZM49.12 56.034c-.635 0-1.116-.253-1.268-.684l-.76-1.977h-4.64l-.76 1.977c-.152.405-.633.659-1.267.659-.33 0-.659-.076-.963-.203-.431-.203-.811-.735-.355-2.155l3.65-9.58c.253-.736 1.04-1.471 2.028-1.496.988.025 1.774.76 2.028 1.495l3.624 9.581c.456 1.445.05 1.977-.355 2.155a2.075 2.075 0 0 1-.963.228Zm-2.814-5.348-1.521-4.31-1.521 4.31h3.041ZM52.896 55.831c-.811 0-1.47-.634-1.47-1.394V44.121c0-.837.684-1.521 1.546-1.521a1.53 1.53 0 0 1 1.546 1.52v8.923h3.245c.81 0 1.47.634 1.47 1.394 0 .76-.66 1.394-1.47 1.394h-4.867ZM61.337 56.034c-.837 0-1.521-.684-1.521-1.52V44.12c0-.837.684-1.521 1.52-1.521.837 0 1.521.684 1.521 1.52v3.27l4.233-4.232c.228-.229.507-.33.837-.33.38 0 .76.152 1.039.456.279.28.43.609.456.964a1.26 1.26 0 0 1-.33.937l-3.472 3.473 3.752 4.968c.253.33.354.735.304 1.115-.05.406-.254.76-.583 1.014a1.465 1.465 0 0 1-.913.304c-.481 0-.912-.228-1.216-.608l-3.574-4.715-.533.533v3.32c0 .76-.684 1.445-1.52 1.445Z" fill="#FFE812"/></svg>