<svg viewBox="0 0 22 22" fill="none" xmlns="http://www.w3.org/2000/svg"><path fill-rule="evenodd" clip-rule="evenodd" d="M0 3.375C0 2.615.616 2 1.375 2h19.25a1.375 1.375 0 1 1 0 2.75H1.375C.615 4.75 0 4.134 0 3.375ZM0 11c0-.76.616-1.375 1.375-1.375h19.25a1.375 1.375 0 1 1 0 2.75H1.375C.615 12.375 0 11.759 0 11Zm1.375 6.25a1.375 1.375 0 1 0 0 2.75h19.25a1.375 1.375 0 1 0 0-2.75H1.375Z" fill="url(#a)"/><path fill-rule="evenodd" clip-rule="evenodd" d="M0 3.375C0 2.615.616 2 1.375 2h19.25a1.375 1.375 0 1 1 0 2.75H1.375C.615 4.75 0 4.134 0 3.375ZM0 11c0-.76.616-1.375 1.375-1.375h19.25a1.375 1.375 0 1 1 0 2.75H1.375C.615 12.375 0 11.759 0 11Zm1.375 6.25a1.375 1.375 0 1 0 0 2.75h19.25a1.375 1.375 0 1 0 0-2.75H1.375Z" fill="url(#b)"/><path fill-rule="evenodd" clip-rule="evenodd" d="M0 3.375C0 2.615.616 2 1.375 2h19.25a1.375 1.375 0 1 1 0 2.75H1.375C.615 4.75 0 4.134 0 3.375ZM0 11c0-.76.616-1.375 1.375-1.375h19.25a1.375 1.375 0 1 1 0 2.75H1.375C.615 12.375 0 11.759 0 11Zm1.375 6.25a1.375 1.375 0 1 0 0 2.75h19.25a1.375 1.375 0 1 0 0-2.75H1.375Z" fill="url(#c)"/><path fill-rule="evenodd" clip-rule="evenodd" d="M0 3.375C0 2.615.616 2 1.375 2h19.25a1.375 1.375 0 1 1 0 2.75H1.375C.615 4.75 0 4.134 0 3.375ZM0 11c0-.76.616-1.375 1.375-1.375h19.25a1.375 1.375 0 1 1 0 2.75H1.375C.615 12.375 0 11.759 0 11Zm1.375 6.25a1.375 1.375 0 1 0 0 2.75h19.25a1.375 1.375 0 1 0 0-2.75H1.375Z" fill="url(#d)"/><defs><radialGradient id="a" cx="0" cy="0" r="1" gradientUnits="userSpaceOnUse" gradientTransform="matrix(-8.49443 9.50317 -9.58094 -8.56394 11 4.683)"><stop offset=".06" stop-color="#FF75A9" stop-opacity=".287"/><stop offset=".57" stop-color="#FF8A82" stop-opacity=".15"/><stop offset=".885" stop-color="#FF56E4" stop-opacity=".49"/></radialGradient><radialGradient id="c" cx="0" cy="0" r="1" gradientUnits="userSpaceOnUse" gradientTransform="matrix(-8.49443 9.50317 -9.58094 -8.56394 11 4.683)"><stop offset=".06" stop-color="#FF75A9" stop-opacity=".287"/><stop offset=".57" stop-color="#FF8A82" stop-opacity=".15"/><stop offset=".885" stop-color="#FF56E4" stop-opacity=".49"/></radialGradient><linearGradient id="b" x1="25.406" y1="1.097" x2="11.646" y2="18.507" gradientUnits="userSpaceOnUse"><stop stop-color="#3EC6EB" stop-opacity=".79"/><stop offset="1" stop-color="#3EC6EB" stop-opacity=".34"/></linearGradient><linearGradient id="d" x1="25.406" y1="1.097" x2="11.646" y2="18.507" gradientUnits="userSpaceOnUse"><stop stop-color="#3EC6EB" stop-opacity=".79"/><stop offset="1" stop-color="#3EC6EB" stop-opacity=".34"/></linearGradient></defs></svg>
