<svg width="146" height="146" viewBox="0 0 146 146" fill="none" xmlns="http://www.w3.org/2000/svg"><circle cx="73" cy="73" r="71" stroke="url(#a)" stroke-width="4"/><path d="M117.373 55.872a.717.717 0 0 0-.782.115 20.16 20.16 0 0 0-.889.825l-1.349 1.341c-.33.345-.653.689-.968 1.033h-.18l-15.2 1.765 3.93-10.933 4.161-2.152c.385-.213.783-.403 1.191-.567a2.21 2.21 0 0 0 1.248-1.22l.094-.214c.092-.256.145-.525.157-.797v-.193l.086-.868c.043-.517.079-1.033.115-1.557l.079-1.65v-1.7a.717.717 0 0 0-1.27-.502 31.4 31.4 0 0 0-.81.875l-1.385 1.614c-.315.38-.617.76-.918 1.14l-.402.517a8.354 8.354 0 0 1-.717.373l-5.072 2.654a2.655 2.655 0 0 0-1.277 1.435l-5.144 14.348-2.288 2.604-.129-.574a.982.982 0 0 1 0-.144 2.234 2.234 0 0 0-.072-.401c-.036-.178-.1-.35-.186-.51l-.61-1.011a64.664 64.664 0 0 0-1.155-1.8 42.514 42.514 0 0 0-1.255-1.802.717.717 0 0 0-1.32.309 33.568 33.568 0 0 0-.337 2.152c-.08.667-.18 1.435-.252 2.152l-.1 1.17a1.808 1.808 0 0 0 0 .588c.027.14.068.277.122.409a.934.934 0 0 1 0 .1l.954 4.103-10.76 12.375c-1.213 0-2.024-.043-2.153-.043s-.91 0-2.152.043L59.618 68.9l.947-4.075.043-.13c.05-.125.09-.255.122-.387a1.942 1.942 0 0 0 0-.61l-.1-1.176a73.631 73.631 0 0 0-.252-2.152c-.093-.717-.18-1.428-.323-2.145a.718.718 0 0 0-1.32-.309 44.62 44.62 0 0 0-1.248 1.794c-.373.567-.79 1.198-1.162 1.815l-.61 1.004a2.153 2.153 0 0 0-.251.531c-.035.14-.059.28-.072.423v.108l-.136.602-2.288-2.603-5.18-14.355a2.64 2.64 0 0 0-1.27-1.435l-5.05-2.64c-.237-.122-.466-.237-.717-.373l-.38-.488a35.533 35.533 0 0 0-.948-1.169l-1.061-1.255-.316-.36c-.265-.293-.53-.587-.81-.874a.718.718 0 0 0-1.27.502v1.17l.093 2.151c.036.524.079 1.04.122 1.557l.13.846c.003.06.003.12 0 .18.012.27.065.535.157.789l.093.222a2.216 2.216 0 0 0 1.256 1.213c.406.163.801.353 1.183.566l4.161 2.152 3.91 10.962-15.144-1.736h-.2c-.317-.344-.64-.717-.977-1.04l-1.083-1.09-.244-.295c-.294-.28-.588-.56-.896-.832a.753.753 0 0 0-1.11.152.718.718 0 0 0-.117.4v1.227l.115 1.923c.043.51.086 1.011.136 1.513l.079.718c.006.364.107.72.294 1.033l.337.523a2.088 2.088 0 0 0 1.901.969c.24-.002.48.015.718.05l.394.05 17.985 2.06 5.358 5.516 8.537 9.749a28.38 28.38 0 0 0-1.88.337c-.946-2.432-5.057-10.488-17.79-10.488a.718.718 0 0 0-.574.266.775.775 0 0 0-.144.617 35.464 35.464 0 0 0 2.576 7.797c2.367 5.022 5.545 7.891 9.218 8.394a51.828 51.828 0 0 0 1.837 9.204c.086.3.165.61.265.903.402 1.198 1.342 4.003 3.415 5.739v14.183a.718.718 0 0 0 .222.524l10.043 10.043c.14.136.328.213.524.215h3.357a.764.764 0 0 0 .524-.215l10.043-10.043a.723.723 0 0 0 .223-.524v-14.147c2.073-1.772 3.013-4.577 3.414-5.739.1-.301.187-.61.266-.91a51.771 51.771 0 0 0 1.843-9.205c3.673-.502 6.851-3.393 9.219-8.393a35.424 35.424 0 0 0 2.553-7.826.779.779 0 0 0-.157-.61.723.723 0 0 0-.574-.266c-12.748 0-16.858 8.064-17.805 10.488a28.38 28.38 0 0 0-1.88-.337l8.508-9.742 5.387-5.545 17.999-2.059.409-.05c.238-.036.478-.052.718-.05a2.153 2.153 0 0 0 1.908-.969l.33-.524c.184-.306.285-.654.294-1.011l.079-.717c.05-.503.093-1.005.136-1.521l.086-1.535V56.56a.713.713 0 0 0-.373-.689Z" fill="#fff"/><path d="M29.682 46.769h-4.39c-.714 0-1.292.578-1.292 1.29v4.391c0 .713.578 1.291 1.291 1.291h4.39c.714 0 1.292-.578 1.292-1.29V48.06c0-.713-.578-1.291-1.291-1.291Z" fill="#fff"/><path d="M29.495 48.246h-4.01v4.01h4.01v-4.01Z" fill="#1E4489"/><path d="M61.569 48.418h-4.39c-.714 0-1.292.578-1.292 1.291v4.39c0 .714.578 1.292 1.291 1.292h4.39c.714 0 1.292-.578 1.292-1.291v-4.39c0-.714-.578-1.292-1.291-1.292Z" fill="#fff"/><path d="M61.382 49.896h-4.01v4.01h4.01v-4.01Z" fill="#1E4489"/><path d="M39.015 29.2h-4.39c-.714 0-1.292.578-1.292 1.291v4.39c0 .714.578 1.292 1.291 1.292h4.39c.714 0 1.292-.578 1.292-1.291v-4.39c0-.714-.578-1.292-1.291-1.292Z" fill="#fff"/><path d="M38.828 30.677h-4.01v4.01h4.01v-4.01Z" fill="#1E4489"/><path d="M119.784 46.769h-4.391c-.713 0-1.291.578-1.291 1.29v4.391c0 .713.578 1.291 1.291 1.291h4.391c.713 0 1.291-.578 1.291-1.29V48.06c0-.713-.578-1.291-1.291-1.291Z" fill="#fff"/><path d="M119.59 48.246h-4.01v4.01h4.01v-4.01Z" fill="#1E4489"/><path d="M87.897 48.418h-4.39c-.714 0-1.292.578-1.292 1.291v4.39c0 .714.578 1.292 1.291 1.292h4.39c.714 0 1.292-.578 1.292-1.291v-4.39c0-.714-.578-1.292-1.291-1.292Z" fill="#fff"/><path d="M87.703 49.896h-4.01v4.01h4.01v-4.01Z" fill="#1E4489"/><path d="M110.45 29.2h-4.39c-.713 0-1.291.578-1.291 1.291v4.39c0 .714.578 1.292 1.291 1.292h4.39c.714 0 1.292-.578 1.292-1.291v-4.39c0-.714-.578-1.292-1.292-1.292Z" fill="#fff"/><path d="M110.257 30.677h-4.01v4.01h4.01v-4.01Z" fill="#1E4489"/><path d="m55.737 71.08-5.574-5.739a.718.718 0 0 0-.445-.215l-18.264-2.102h-.359a5.148 5.148 0 0 0-1.019-.065.654.654 0 0 1-.574-.287l-.33-.523a1.049 1.049 0 0 1-.071-.373l-.08-.718c-.05-.487-.093-.975-.128-1.434l-.072-1.242.868.876c.344.358.681.717 1.011 1.076l.115.136a.89.89 0 0 0 .524.244l.402.043 16.363 1.772a.717.717 0 0 0 .66-.273.716.716 0 0 0 .122-.717l-4.434-12.296a.718.718 0 0 0-.358-.402l-4.412-2.31a11.73 11.73 0 0 0-1.349-.645.72.72 0 0 1-.409-.395l-.093-.215a1.775 1.775 0 0 1-.05-.351v-.216l-.1-.832a51.603 51.603 0 0 1-.108-1.513l-.065-1.256.804.954c.315.38.617.76.925 1.14l.46.596a.632.632 0 0 0 .207.18c.287.172.581.33.883.48l5.072 2.655c.26.138.46.368.56.645l5.2 14.455a.78.78 0 0 0 .136.237l3.25 3.666c.105.097.226.175.359.23a.718.718 0 0 0 .631 0 .767.767 0 0 0 .387-.503l.452-1.973v-.444c.026-.05.055-.098.086-.144l.61-1.011c.366-.589.718-1.184 1.134-1.765l.165-.251v.308c.093.675.179 1.378.244 2.066l.193 1.177a.718.718 0 0 1 0 .158.488.488 0 0 1-.05.143 2.935 2.935 0 0 0-.093.294l-1.04 4.47a.719.719 0 0 0 .165.652l10.265 11.772c-1.112.065-2.36.158-3.587.295l-9.19-10.51Z" fill="#fff"/><path d="M57.702 97.214a10.25 10.25 0 0 1 6.543 4.147 9.549 9.549 0 0 1 1.513 3.924 17.762 17.762 0 0 1-1.85-.424 12.362 12.362 0 0 1-1.636-.538 5.212 5.212 0 0 1-1.162-.717l-.208-.172-.144-.137c-1.205-1.183-2.152-3.17-2.87-5.337a4.05 4.05 0 0 0-.186-.746ZM87.165 97.946c-.718 2.152-1.636 4.146-2.87 5.33l-.143.144-.208.172c-.355.289-.745.53-1.163.717-.532.216-1.078.396-1.635.538-.61.174-1.227.315-1.85.423a9.56 9.56 0 0 1 1.513-3.924A10.252 10.252 0 0 1 87.35 97.2c-.036.258-.107.48-.186.746Z" fill="#1E4489"/><path d="M84.102 83.77a.717.717 0 0 0 .89-.53c.107-.402 2.732-9.635 15.695-10.043-.76 3.17-3.802 13.716-10.868 14.16a.717.717 0 0 0-.717.675 56.417 56.417 0 0 1-1.313 7.618 11.944 11.944 0 0 0-8.193 4.9 11.22 11.22 0 0 0-1.858 5.574.718.718 0 0 0 .23.581c.139.128.32.199.51.201h.093a20.41 20.41 0 0 0 2.998-.603 14.686 14.686 0 0 0 1.837-.617l.129-.064v12.913l-9.627 9.634h-2.74l-9.628-9.649v-12.913l.13.065c.597.246 1.21.452 1.836.617.983.276 1.985.478 2.998.603h.094a.763.763 0 0 0 .509-.201.724.724 0 0 0 .23-.581 11.22 11.22 0 0 0-1.859-5.574 11.94 11.94 0 0 0-8.22-4.9 56.414 56.414 0 0 1-1.313-7.619.717.717 0 0 0-.718-.674c-7.03-.423-10.079-10.99-10.84-14.16 12.956.422 15.59 9.655 15.697 10.042a.72.72 0 0 0 .89.531c4.304-1.083 11.477-1.097 11.563-1.097.087 0 7.232.028 11.564 1.112Z" fill="#fff"/><path d="M116.183 59.53c-.036.495-.079.983-.129 1.435l-.079.76c-.003.121-.028.24-.072.352l-.33.524a.642.642 0 0 1-.574.287 5.144 5.144 0 0 0-1.019.064l-.373.043-18.25 2.095a.718.718 0 0 0-.445.215l-5.595 5.74-9.16 10.566a73.642 73.642 0 0 0-3.588-.294l10.244-11.772a.717.717 0 0 0 .165-.653l-1.047-4.498c0-.093-.057-.179-.086-.265a.509.509 0 0 1-.036-.165.719.719 0 0 1 0-.172l.108-1.177c.064-.717.15-1.434.243-2.087 0-.094 0-.194.036-.294l.173.258c.38.574.76 1.17 1.126 1.75l.61 1.019a.82.82 0 0 1 .086.158c.003.052.003.105 0 .158.008.1.023.201.043.3l.452 1.966a.716.716 0 0 0 .387.488.76.76 0 0 0 .624 0h.086c.106-.04.2-.107.273-.194l3.25-3.694a.993.993 0 0 0 .143-.237l5.194-14.455c.1-.277.299-.507.56-.645l5.071-2.655c.302-.15.596-.308.883-.48a.645.645 0 0 0 .208-.18l.53-.631c.295-.373.589-.717.89-1.105l.811-.961-.058 1.248c0 .517-.071 1.019-.115 1.521l-.093.832v.223a1.738 1.738 0 0 1-.05.358l-.093.215a.728.728 0 0 1-.409.395c-.463.186-.913.402-1.349.646l-4.412 2.31a.717.717 0 0 0-.358.401l-4.434 12.332a.717.717 0 0 0 .122.717.718.718 0 0 0 .66.273l16.385-1.88.43-.05a.717.717 0 0 0 .474-.236l.115-.137c.33-.366.667-.717.997-1.069l.882-.882-.107 1.22Z" fill="#fff"/><defs><radialGradient id="a" cx="0" cy="0" r="1" gradientUnits="userSpaceOnUse" gradientTransform="rotate(178.954 39.953 44.168) scale(88.8315 113.259)"><stop offset=".173" stop-color="#91BEFD"/><stop offset=".323" stop-color="#BCF0FE"/><stop offset=".76" stop-color="#D7E2F3"/></radialGradient></defs></svg>