<svg width="45" height="47" fill="none" xmlns="http://www.w3.org/2000/svg"><path d="M43.27 12.366c-.059-.026-.125-.036-.19-.026a.345.345 0 0 0-.174.079c-.143.126-.275.252-.415.381l-.623.623c-.15.16-.302.319-.45.48h-.082l-7.033.818 1.826-5.07 1.921-1.01c.177-.102.36-.194.549-.274a1.02 1.02 0 0 0 .58-.566l.04-.098c.045-.119.07-.244.075-.37v-.089l.038-.403c.02-.239.038-.48.055-.725l.038-.76v-.772a.343.343 0 0 0-.59-.233c-.129.135-.25.275-.373.406l-.643.75c-.145.175-.274.351-.425.527l-.19.241c-.104.06-.21.116-.318.173l-2.355 1.23a1.235 1.235 0 0 0-.587.675l-2.389 6.64-1.059 1.205-.06-.274a.888.888 0 0 0-.148-.508l-.275-.467c-.173-.274-.354-.562-.535-.823-.181-.261-.363-.55-.582-.824a.342.342 0 0 0-.612.143c-.066.36-.118.689-.157 1-.038.31-.082.655-.115.993l-.047.549a.821.821 0 0 0 .055.464l.02.05.441 1.899-4.998 5.723c-.55-.02-.939-.02-.983-.02-.044 0-.423 0-.983.02l-5.004-5.74.44-1.886a.56.56 0 0 1 .022-.063.821.821 0 0 0 .052-.453l-.047-.549a25.577 25.577 0 0 0-.272-1.99.34.34 0 0 0-.274-.274.336.336 0 0 0-.352.129 24.27 24.27 0 0 0-.579.823c-.173.256-.365.55-.549.84l-.274.467a.878.878 0 0 0-.148.44v.051l-.063.275-1.06-1.205-2.388-6.64a1.235 1.235 0 0 0-.588-.676L8.095 6.454c-.107-.055-.214-.11-.319-.17l-.178-.228a54.856 54.856 0 0 0-.44-.55l-.49-.581-.149-.162c-.12-.137-.244-.275-.376-.41a.343.343 0 0 0-.587.234v.55l.05.987c.013.242.032.483.051.722l.039.412v.082c.004.126.03.25.074.368l.041.102a1.024 1.024 0 0 0 .58.562c.188.08.371.172.548.275l1.922 1.01 1.836 5.064-7.024-.807h-.09c-.15-.162-.3-.32-.454-.483l-.502-.516-.115-.112a14.034 14.034 0 0 0-.418-.385.346.346 0 0 0-.568.256v.568l.047.873c.016.236.036.47.06.703l.036.329c.004.17.05.335.137.48l.157.245a.97.97 0 0 0 .88.447c.117 0 .234.008.35.025l.178.022 8.339.955 2.484 2.558 3.955 4.524c-.299.046-.593.099-.87.159-.439-1.126-2.347-4.864-8.256-4.864a.34.34 0 0 0-.341.253.349.349 0 0 0-.008.145c.259 1.25.661 2.466 1.2 3.623 1.097 2.32 2.569 3.66 4.273 3.893.156 1.445.442 2.874.857 4.268.038.14.077.274.12.42.187.549.624 1.855 1.584 2.679v6.574a.334.334 0 0 0 .102.242l4.666 4.666a.346.346 0 0 0 .245.101h1.553c.092 0 .18-.036.244-.101l4.667-4.666a.335.335 0 0 0 .101-.242v-6.574c.961-.824 1.397-2.125 1.584-2.68.047-.14.085-.274.124-.422.413-1.393.7-2.82.853-4.265 1.705-.234 3.176-1.573 4.274-3.893a16.546 16.546 0 0 0 1.194-3.615.344.344 0 0 0-.337-.406c-5.91 0-7.818 3.738-8.257 4.864a14.55 14.55 0 0 0-.87-.16l3.93-4.51 2.498-2.571 8.331-.955.19-.022c.114-.018.23-.026.345-.025a.983.983 0 0 0 .884-.45l.154-.239a1 1 0 0 0 .137-.472l.036-.343c.025-.23.044-.464.063-.706l.041-.71v-.725a.345.345 0 0 0-.19-.308Z" fill="url(#a)"/><path d="M2.632 8.144H.598A.598.598 0 0 0 0 8.742v2.034c0 .33.268.599.598.599h2.034c.33 0 .599-.268.599-.599V8.742a.598.598 0 0 0-.599-.598Z" fill="url(#b)"/><path d="M2.545 8.83H.686v1.858h1.859V8.83Z" fill="#fff"/><path d="M17.414 8.907H15.38a.598.598 0 0 0-.599.599v2.034c0 .33.268.598.599.598h2.034c.33 0 .598-.268.598-.598V9.506a.598.598 0 0 0-.598-.599Z" fill="url(#c)"/><path d="M17.326 9.594h-1.858v1.858h1.858V9.594Z" fill="#fff"/><path d="M6.958 0H4.924a.598.598 0 0 0-.598.598v2.034c0 .33.268.599.598.599h2.034c.33 0 .599-.268.599-.599V.598A.598.598 0 0 0 6.958 0Z" fill="url(#d)"/><path d="M6.87.687H5.013v1.858h1.859V.687Z" fill="#fff"/><path d="M44.402 8.144h-2.034a.598.598 0 0 0-.599.598v2.034c0 .33.268.599.599.599h2.034c.33 0 .598-.268.598-.599V8.742a.598.598 0 0 0-.598-.598Z" fill="url(#e)"/><path d="M44.314 8.83h-1.858v1.858h1.858V8.83Z" fill="#fff"/><path d="M29.618 8.907h-2.034a.598.598 0 0 0-.599.599v2.034c0 .33.268.598.599.598h2.034c.33 0 .598-.268.598-.598V9.506a.598.598 0 0 0-.598-.599Z" fill="url(#f)"/><path d="M29.53 9.594h-1.858v1.858h1.858V9.594Z" fill="#fff"/><path d="M40.076 0h-2.034a.598.598 0 0 0-.599.598v2.034c0 .33.268.599.599.599h2.034c.33 0 .598-.268.598-.599V.598A.598.598 0 0 0 40.076 0Z" fill="url(#g)"/><path d="M39.988.687H38.13v1.858h1.858V.687Z" fill="#fff"/><path d="m14.71 19.415-2.583-2.66a.335.335 0 0 0-.206-.101l-8.468-.972-.165-.02a2.58 2.58 0 0 0-.472-.027.297.297 0 0 1-.274-.134l-.154-.242a.522.522 0 0 1-.033-.173l-.035-.343a19.25 19.25 0 0 1-.06-.675l-.034-.577.401.407c.16.164.316.332.467.5l.057.062c.065.063.15.102.24.113.06 0 .12 0 .186.022l7.595.862a.33.33 0 0 0 .307-.13.334.334 0 0 0 .055-.326l-2.056-5.71a.338.338 0 0 0-.162-.186L7.27 8.045a5.49 5.49 0 0 0-.626-.299.33.33 0 0 1-.19-.184l-.04-.098a.697.697 0 0 1-.026-.165.9.9 0 0 0 0-.099l-.035-.392c-.02-.236-.039-.47-.052-.703l-.03-.582.376.442c.145.176.274.351.425.53l.214.274a.316.316 0 0 0 .096.085c.135.08.275.151.41.223l2.351 1.232a.549.549 0 0 1 .275.3l2.41 6.7c.015.04.036.077.063.11l1.507 1.712a.547.547 0 0 0 .168.107.337.337 0 0 0 .29 0 .347.347 0 0 0 .179-.23l.211-.917c0-.041 0-.082.017-.124a.408.408 0 0 1 0-.08.342.342 0 0 1 .038-.068l.275-.47c.167-.274.346-.548.527-.823l.074-.115c0 .05.014.096.02.143.043.315.081.64.112.96l.049.55a.405.405 0 0 1 0 .082.715.715 0 0 1-.022.071.914.914 0 0 0-.044.132l-.483 2.072a.344.344 0 0 0 .077.302l4.757 5.438a30.69 30.69 0 0 0-1.675.137l-4.257-4.883Z" fill="url(#h)"/><path d="M15.638 31.53a4.746 4.746 0 0 1 3.02 1.922c.365.546.604 1.167.7 1.817a10.308 10.308 0 0 1-.86-.195 6.248 6.248 0 0 1-.757-.252 2.37 2.37 0 0 1-.645-.42l-.066-.06c-.55-.55-.994-1.472-1.32-2.47-.023-.113-.058-.22-.072-.341ZM29.28 31.868c-.327 1.002-.758 1.921-1.32 2.47l-.066.066-.096.08a2.37 2.37 0 0 1-.55.338c-.247.1-.5.184-.757.252-.275.08-.571.143-.86.195.1-.65.343-1.27.712-1.814.717-1.01 1.8-1.7 3.02-1.922 0 .118-.05.223-.083.335Z" fill="#fff"/><path d="M27.86 25.297a.343.343 0 0 0 .404-.233c.05-.187 1.266-4.469 7.274-4.666-.35 1.468-1.762 6.36-5.036 6.565a.34.34 0 0 0-.316.297 25.929 25.929 0 0 1-.61 3.532c-.782.107-2.646.55-3.81 2.27a5.158 5.158 0 0 0-.861 2.584.346.346 0 0 0 .202.343c.044.02.09.03.138.03h.041c.47-.057.935-.149 1.392-.275.29-.073.573-.164.85-.274l.064-.033v5.99l-4.455 4.446h-1.271L17.4 41.41v-5.99l.063.033c.276.111.56.203.848.275.457.127.924.218 1.395.274h.05a.343.343 0 0 0 .34-.365 5.16 5.16 0 0 0-.862-2.583c-1.164-1.726-3.02-2.163-3.81-2.27a25.653 25.653 0 0 1-.61-3.524.343.343 0 0 0-.32-.313c-3.278-.198-4.692-5.09-5.043-6.55 6.006.195 7.224 4.477 7.274 4.667a.343.343 0 0 0 .414.244c2.01-.519 5.328-.519 5.361-.519.033 0 3.352 0 5.36.508Z" fill="url(#i)"/><path d="M42.733 14.062c-.017.228-.036.456-.06.68l-.036.355a.517.517 0 0 1-.033.162l-.154.241a.293.293 0 0 1-.275.135 2.592 2.592 0 0 0-.474.027l-.173.02-8.46.971a.335.335 0 0 0-.206.102l-2.597 2.673-4.232 4.87a31.135 31.135 0 0 0-1.675-.137l4.76-5.46a.338.338 0 0 0 .077-.302l-.486-2.083a1.099 1.099 0 0 0-.041-.124.766.766 0 0 1-.025-.074.757.757 0 0 1 0-.077l.05-.549c.032-.324.068-.648.112-.969 0-.044 0-.09.02-.137l.076.12c.179.275.357.55.522.824l.274.472c.017.023.03.048.041.075a.565.565 0 0 1 0 .07c0 .045 0 .086.02.14l.21.912a.348.348 0 0 0 .18.225.352.352 0 0 0 .274 0l.041-.016a.354.354 0 0 0 .126-.09l1.507-1.714a.447.447 0 0 0 .066-.11l2.446-6.7a.55.55 0 0 1 .26-.299l2.353-1.23c.137-.071.275-.145.409-.225a.349.349 0 0 0 .096-.082l.225-.275c.135-.173.275-.345.415-.513l.376-.445-.03.58c-.014.236-.034.469-.053.705l-.035.387v.104a.717.717 0 0 1-.025.165l-.041.099a.328.328 0 0 1-.19.184 5.501 5.501 0 0 0-.637.296l-2.055 1.06a.332.332 0 0 0-.165.186L33.48 15.01a.341.341 0 0 0 .186.418.342.342 0 0 0 .162.03l7.595-.873.198-.022a.352.352 0 0 0 .22-.11l.057-.063c.151-.168.308-.335.461-.494l.407-.412-.033.58Z" fill="url(#j)"/><path d="M43.27 12.366c-.059-.026-.125-.036-.19-.026a.345.345 0 0 0-.174.079c-.143.126-.275.252-.415.381l-.623.623c-.15.16-.302.319-.45.48h-.082l-7.033.818 1.826-5.07 1.921-1.01c.177-.102.36-.194.549-.274a1.02 1.02 0 0 0 .58-.566l.04-.098c.045-.119.07-.244.075-.37v-.089l.038-.403c.02-.239.038-.48.055-.725l.038-.76v-.772a.343.343 0 0 0-.59-.233c-.129.135-.25.275-.373.406l-.643.75c-.145.175-.274.351-.425.527l-.19.241c-.104.06-.21.116-.318.173l-2.355 1.23a1.235 1.235 0 0 0-.587.675l-2.389 6.64-1.059 1.205-.06-.274a.888.888 0 0 0-.148-.508l-.275-.467c-.173-.274-.354-.562-.535-.823-.181-.261-.363-.55-.582-.824a.342.342 0 0 0-.612.143c-.066.36-.118.689-.157 1-.038.31-.082.655-.115.993l-.047.549a.821.821 0 0 0 .055.464l.02.05.441 1.899-4.998 5.723c-.55-.02-.939-.02-.983-.02-.044 0-.423 0-.983.02l-5.004-5.74.44-1.886a.56.56 0 0 1 .022-.063.821.821 0 0 0 .052-.453l-.047-.549a25.577 25.577 0 0 0-.272-1.99.34.34 0 0 0-.274-.274.336.336 0 0 0-.352.129 24.27 24.27 0 0 0-.579.823c-.173.256-.365.55-.549.84l-.274.467a.878.878 0 0 0-.148.44v.051l-.063.275-1.06-1.205-2.388-6.64a1.235 1.235 0 0 0-.588-.676L8.095 6.454c-.107-.055-.214-.11-.319-.17l-.178-.228a54.856 54.856 0 0 0-.44-.55l-.49-.581-.149-.162c-.12-.137-.244-.275-.376-.41a.343.343 0 0 0-.587.234v.55l.05.987c.013.242.032.483.051.722l.039.412v.082c.004.126.03.25.074.368l.041.102a1.024 1.024 0 0 0 .58.562c.188.08.371.172.548.275l1.922 1.01 1.836 5.064-7.024-.807h-.09c-.15-.162-.3-.32-.454-.483l-.502-.516-.115-.112a14.034 14.034 0 0 0-.418-.385.346.346 0 0 0-.568.256v.568l.047.873c.016.236.036.47.06.703l.036.329c.004.17.05.335.137.48l.157.245a.97.97 0 0 0 .88.447c.117 0 .234.008.35.025l.178.022 8.339.955 2.484 2.558 3.955 4.524c-.299.046-.593.099-.87.159-.439-1.126-2.347-4.864-8.256-4.864a.34.34 0 0 0-.341.253.349.349 0 0 0-.008.145c.259 1.25.661 2.466 1.2 3.623 1.097 2.32 2.569 3.66 4.273 3.893.156 1.445.442 2.874.857 4.268.038.14.077.274.12.42.187.549.624 1.855 1.584 2.679v6.574a.334.334 0 0 0 .102.242l4.666 4.666a.346.346 0 0 0 .245.101h1.553c.092 0 .18-.036.244-.101l4.667-4.666a.335.335 0 0 0 .101-.242v-6.574c.961-.824 1.397-2.125 1.584-2.68.047-.14.085-.274.124-.422.413-1.393.7-2.82.853-4.265 1.705-.234 3.176-1.573 4.274-3.893a16.546 16.546 0 0 0 1.194-3.615.344.344 0 0 0-.337-.406c-5.91 0-7.818 3.738-8.257 4.864a14.55 14.55 0 0 0-.87-.16l3.93-4.51 2.498-2.571 8.331-.955.19-.022c.114-.018.23-.026.345-.025a.983.983 0 0 0 .884-.45l.154-.239a1 1 0 0 0 .137-.472l.036-.343c.025-.23.044-.464.063-.706l.041-.71v-.725a.345.345 0 0 0-.19-.308Z" fill="url(#k)"/><path d="M2.632 8.144H.598A.598.598 0 0 0 0 8.742v2.034c0 .33.268.599.598.599h2.034c.33 0 .599-.268.599-.599V8.742a.598.598 0 0 0-.599-.598Z" fill="url(#l)"/><path d="M2.545 8.83H.686v1.858h1.859V8.83Z" fill="#fff"/><path d="M17.414 8.907H15.38a.598.598 0 0 0-.599.599v2.034c0 .33.268.598.599.598h2.034c.33 0 .598-.268.598-.598V9.506a.598.598 0 0 0-.598-.599Z" fill="url(#m)"/><path d="M17.326 9.594h-1.858v1.858h1.858V9.594Z" fill="#fff"/><path d="M6.958 0H4.924a.598.598 0 0 0-.598.598v2.034c0 .33.268.599.598.599h2.034c.33 0 .599-.268.599-.599V.598A.598.598 0 0 0 6.958 0Z" fill="url(#n)"/><path d="M6.87.687H5.013v1.858h1.859V.687Z" fill="#fff"/><path d="M44.402 8.144h-2.034a.598.598 0 0 0-.599.598v2.034c0 .33.268.599.599.599h2.034c.33 0 .598-.268.598-.599V8.742a.598.598 0 0 0-.598-.598Z" fill="url(#o)"/><path d="M44.314 8.83h-1.858v1.858h1.858V8.83Z" fill="#fff"/><path d="M29.618 8.907h-2.034a.598.598 0 0 0-.599.599v2.034c0 .33.268.598.599.598h2.034c.33 0 .598-.268.598-.598V9.506a.598.598 0 0 0-.598-.599Z" fill="url(#p)"/><path d="M29.53 9.594h-1.858v1.858h1.858V9.594Z" fill="#fff"/><path d="M40.076 0h-2.034a.598.598 0 0 0-.599.598v2.034c0 .33.268.599.599.599h2.034c.33 0 .598-.268.598-.599V.598A.598.598 0 0 0 40.076 0Z" fill="url(#q)"/><path d="M39.988.687H38.13v1.858h1.858V.687Z" fill="#fff"/><path d="m14.71 19.415-2.583-2.66a.335.335 0 0 0-.206-.101l-8.468-.972-.165-.02a2.58 2.58 0 0 0-.472-.027.297.297 0 0 1-.274-.134l-.154-.242a.522.522 0 0 1-.033-.173l-.035-.343a19.25 19.25 0 0 1-.06-.675l-.034-.577.401.407c.16.164.316.332.467.5l.057.062c.065.063.15.102.24.113.06 0 .12 0 .186.022l7.595.862a.33.33 0 0 0 .307-.13.334.334 0 0 0 .055-.326l-2.056-5.71a.338.338 0 0 0-.162-.186L7.27 8.045a5.49 5.49 0 0 0-.626-.299.33.33 0 0 1-.19-.184l-.04-.098a.697.697 0 0 1-.026-.165.9.9 0 0 0 0-.099l-.035-.392c-.02-.236-.039-.47-.052-.703l-.03-.582.376.442c.145.176.274.351.425.53l.214.274a.316.316 0 0 0 .096.085c.135.08.275.151.41.223l2.351 1.232a.549.549 0 0 1 .275.3l2.41 6.7c.015.04.036.077.063.11l1.507 1.712a.547.547 0 0 0 .168.107.337.337 0 0 0 .29 0 .347.347 0 0 0 .179-.23l.211-.917c0-.041 0-.082.017-.124a.408.408 0 0 1 0-.08.342.342 0 0 1 .038-.068l.275-.47c.167-.274.346-.548.527-.823l.074-.115c0 .05.014.096.02.143.043.315.081.64.112.96l.049.55a.405.405 0 0 1 0 .082.715.715 0 0 1-.022.071.914.914 0 0 0-.044.132l-.483 2.072a.344.344 0 0 0 .077.302l4.757 5.438a30.69 30.69 0 0 0-1.675.137l-4.257-4.883Z" fill="url(#r)"/><path d="M15.638 31.53a4.746 4.746 0 0 1 3.02 1.922c.365.546.604 1.167.7 1.817a10.308 10.308 0 0 1-.86-.195 6.248 6.248 0 0 1-.757-.252 2.37 2.37 0 0 1-.645-.42l-.066-.06c-.55-.55-.994-1.472-1.32-2.47-.023-.113-.058-.22-.072-.341ZM29.28 31.868c-.327 1.002-.758 1.921-1.32 2.47l-.066.066-.096.08a2.37 2.37 0 0 1-.55.338c-.247.1-.5.184-.757.252-.275.08-.571.143-.86.195.1-.65.343-1.27.712-1.814.717-1.01 1.8-1.7 3.02-1.922 0 .118-.05.223-.083.335Z" fill="#fff"/><path d="M27.86 25.297a.343.343 0 0 0 .404-.233c.05-.187 1.266-4.469 7.274-4.666-.35 1.468-1.762 6.36-5.036 6.565a.34.34 0 0 0-.316.297 25.929 25.929 0 0 1-.61 3.532c-.782.107-2.646.55-3.81 2.27a5.158 5.158 0 0 0-.861 2.584.346.346 0 0 0 .202.343c.044.02.09.03.138.03h.041c.47-.057.935-.149 1.392-.275.29-.073.573-.164.85-.274l.064-.033v5.99l-4.455 4.446h-1.271L17.4 41.41v-5.99l.063.033c.276.111.56.203.848.275.457.127.924.218 1.395.274h.05a.343.343 0 0 0 .34-.365 5.16 5.16 0 0 0-.862-2.583c-1.164-1.726-3.02-2.163-3.81-2.27a25.653 25.653 0 0 1-.61-3.524.343.343 0 0 0-.32-.313c-3.278-.198-4.692-5.09-5.043-6.55 6.006.195 7.224 4.477 7.274 4.667a.343.343 0 0 0 .414.244c2.01-.519 5.328-.519 5.361-.519.033 0 3.352 0 5.36.508Z" fill="url(#s)"/><path d="M42.733 14.062c-.017.228-.036.456-.06.68l-.036.355a.517.517 0 0 1-.033.162l-.154.241a.293.293 0 0 1-.275.135 2.592 2.592 0 0 0-.474.027l-.173.02-8.46.971a.335.335 0 0 0-.206.102l-2.597 2.673-4.232 4.87a31.135 31.135 0 0 0-1.675-.137l4.76-5.46a.338.338 0 0 0 .077-.302l-.486-2.083a1.099 1.099 0 0 0-.041-.124.766.766 0 0 1-.025-.074.757.757 0 0 1 0-.077l.05-.549c.032-.324.068-.648.112-.969 0-.044 0-.09.02-.137l.076.12c.179.275.357.55.522.824l.274.472c.017.023.03.048.041.075a.565.565 0 0 1 0 .07c0 .045 0 .086.02.14l.21.912a.348.348 0 0 0 .18.225.352.352 0 0 0 .274 0l.041-.016a.354.354 0 0 0 .126-.09l1.507-1.714a.447.447 0 0 0 .066-.11l2.446-6.7a.55.55 0 0 1 .26-.299l2.353-1.23c.137-.071.275-.145.409-.225a.349.349 0 0 0 .096-.082l.225-.275c.135-.173.275-.345.415-.513l.376-.445-.03.58c-.014.236-.034.469-.053.705l-.035.387v.104a.717.717 0 0 1-.025.165l-.041.099a.328.328 0 0 1-.19.184 5.501 5.501 0 0 0-.637.296l-2.055 1.06a.332.332 0 0 0-.165.186L33.48 15.01a.341.341 0 0 0 .186.418.342.342 0 0 0 .162.03l7.595-.873.198-.022a.352.352 0 0 0 .22-.11l.057-.063c.151-.168.308-.335.461-.494l.407-.412-.033.58Z" fill="url(#t)"/><path d="M43.27 12.366c-.059-.026-.125-.036-.19-.026a.345.345 0 0 0-.174.079c-.143.126-.275.252-.415.381l-.623.623c-.15.16-.302.319-.45.48h-.082l-7.033.818 1.826-5.07 1.921-1.01c.177-.102.36-.194.549-.274a1.02 1.02 0 0 0 .58-.566l.04-.098c.045-.119.07-.244.075-.37v-.089l.038-.403c.02-.239.038-.48.055-.725l.038-.76v-.772a.343.343 0 0 0-.59-.233c-.129.135-.25.275-.373.406l-.643.75c-.145.175-.274.351-.425.527l-.19.241c-.104.06-.21.116-.318.173l-2.355 1.23a1.235 1.235 0 0 0-.587.675l-2.389 6.64-1.059 1.205-.06-.274a.888.888 0 0 0-.148-.508l-.275-.467c-.173-.274-.354-.562-.535-.823-.181-.261-.363-.55-.582-.824a.342.342 0 0 0-.612.143c-.066.36-.118.689-.157 1-.038.31-.082.655-.115.993l-.047.549a.821.821 0 0 0 .055.464l.02.05.441 1.899-4.998 5.723c-.55-.02-.939-.02-.983-.02-.044 0-.423 0-.983.02l-5.004-5.74.44-1.886a.56.56 0 0 1 .022-.063.821.821 0 0 0 .052-.453l-.047-.549a25.577 25.577 0 0 0-.272-1.99.34.34 0 0 0-.274-.274.336.336 0 0 0-.352.129 24.27 24.27 0 0 0-.579.823c-.173.256-.365.55-.549.84l-.274.467a.878.878 0 0 0-.148.44v.051l-.063.275-1.06-1.205-2.388-6.64a1.235 1.235 0 0 0-.588-.676L8.095 6.454c-.107-.055-.214-.11-.319-.17l-.178-.228a54.856 54.856 0 0 0-.44-.55l-.49-.581-.149-.162c-.12-.137-.244-.275-.376-.41a.343.343 0 0 0-.587.234v.55l.05.987c.013.242.032.483.051.722l.039.412v.082c.004.126.03.25.074.368l.041.102a1.024 1.024 0 0 0 .58.562c.188.08.371.172.548.275l1.922 1.01 1.836 5.064-7.024-.807h-.09c-.15-.162-.3-.32-.454-.483l-.502-.516-.115-.112a14.034 14.034 0 0 0-.418-.385.346.346 0 0 0-.568.256v.568l.047.873c.016.236.036.47.06.703l.036.329c.004.17.05.335.137.48l.157.245a.97.97 0 0 0 .88.447c.117 0 .234.008.35.025l.178.022 8.339.955 2.484 2.558 3.955 4.524c-.299.046-.593.099-.87.159-.439-1.126-2.347-4.864-8.256-4.864a.34.34 0 0 0-.341.253.349.349 0 0 0-.008.145c.259 1.25.661 2.466 1.2 3.623 1.097 2.32 2.569 3.66 4.273 3.893.156 1.445.442 2.874.857 4.268.038.14.077.274.12.42.187.549.624 1.855 1.584 2.679v6.574a.334.334 0 0 0 .102.242l4.666 4.666a.346.346 0 0 0 .245.101h1.553c.092 0 .18-.036.244-.101l4.667-4.666a.335.335 0 0 0 .101-.242v-6.574c.961-.824 1.397-2.125 1.584-2.68.047-.14.085-.274.124-.422.413-1.393.7-2.82.853-4.265 1.705-.234 3.176-1.573 4.274-3.893a16.546 16.546 0 0 0 1.194-3.615.344.344 0 0 0-.337-.406c-5.91 0-7.818 3.738-8.257 4.864a14.55 14.55 0 0 0-.87-.16l3.93-4.51 2.498-2.571 8.331-.955.19-.022c.114-.018.23-.026.345-.025a.983.983 0 0 0 .884-.45l.154-.239a1 1 0 0 0 .137-.472l.036-.343c.025-.23.044-.464.063-.706l.041-.71v-.725a.345.345 0 0 0-.19-.308Z" fill="url(#u)"/><path d="M2.632 8.144H.598A.598.598 0 0 0 0 8.742v2.034c0 .33.268.599.598.599h2.034c.33 0 .599-.268.599-.599V8.742a.598.598 0 0 0-.599-.598Z" fill="url(#v)"/><path d="M2.545 8.83H.686v1.858h1.859V8.83Z" fill="#fff"/><path d="M17.414 8.907H15.38a.598.598 0 0 0-.599.599v2.034c0 .33.268.598.599.598h2.034c.33 0 .598-.268.598-.598V9.506a.598.598 0 0 0-.598-.599Z" fill="url(#w)"/><path d="M17.326 9.594h-1.858v1.858h1.858V9.594Z" fill="#fff"/><path d="M6.958 0H4.924a.598.598 0 0 0-.598.598v2.034c0 .33.268.599.598.599h2.034c.33 0 .599-.268.599-.599V.598A.598.598 0 0 0 6.958 0Z" fill="url(#x)"/><path d="M6.87.687H5.013v1.858h1.859V.687Z" fill="#fff"/><path d="M44.402 8.144h-2.034a.598.598 0 0 0-.599.598v2.034c0 .33.268.599.599.599h2.034c.33 0 .598-.268.598-.599V8.742a.598.598 0 0 0-.598-.598Z" fill="url(#y)"/><path d="M44.314 8.83h-1.858v1.858h1.858V8.83Z" fill="#fff"/><path d="M29.618 8.907h-2.034a.598.598 0 0 0-.599.599v2.034c0 .33.268.598.599.598h2.034c.33 0 .598-.268.598-.598V9.506a.598.598 0 0 0-.598-.599Z" fill="url(#z)"/><path d="M29.53 9.594h-1.858v1.858h1.858V9.594Z" fill="#fff"/><path d="M40.076 0h-2.034a.598.598 0 0 0-.599.598v2.034c0 .33.268.599.599.599h2.034c.33 0 .598-.268.598-.599V.598A.598.598 0 0 0 40.076 0Z" fill="url(#A)"/><path d="M39.988.687H38.13v1.858h1.858V.687Z" fill="#fff"/><path d="m14.71 19.415-2.583-2.66a.335.335 0 0 0-.206-.101l-8.468-.972-.165-.02a2.58 2.58 0 0 0-.472-.027.297.297 0 0 1-.274-.134l-.154-.242a.522.522 0 0 1-.033-.173l-.035-.343a19.25 19.25 0 0 1-.06-.675l-.034-.577.401.407c.16.164.316.332.467.5l.057.062c.065.063.15.102.24.113.06 0 .12 0 .186.022l7.595.862a.33.33 0 0 0 .307-.13.334.334 0 0 0 .055-.326l-2.056-5.71a.338.338 0 0 0-.162-.186L7.27 8.045a5.49 5.49 0 0 0-.626-.299.33.33 0 0 1-.19-.184l-.04-.098a.697.697 0 0 1-.026-.165.9.9 0 0 0 0-.099l-.035-.392c-.02-.236-.039-.47-.052-.703l-.03-.582.376.442c.145.176.274.351.425.53l.214.274a.316.316 0 0 0 .096.085c.135.08.275.151.41.223l2.351 1.232a.549.549 0 0 1 .275.3l2.41 6.7c.015.04.036.077.063.11l1.507 1.712a.547.547 0 0 0 .168.107.337.337 0 0 0 .29 0 .347.347 0 0 0 .179-.23l.211-.917c0-.041 0-.082.017-.124a.408.408 0 0 1 0-.08.342.342 0 0 1 .038-.068l.275-.47c.167-.274.346-.548.527-.823l.074-.115c0 .05.014.096.02.143.043.315.081.64.112.96l.049.55a.405.405 0 0 1 0 .082.715.715 0 0 1-.022.071.914.914 0 0 0-.044.132l-.483 2.072a.344.344 0 0 0 .077.302l4.757 5.438a30.69 30.69 0 0 0-1.675.137l-4.257-4.883Z" fill="url(#B)"/><path d="M15.638 31.53a4.746 4.746 0 0 1 3.02 1.922c.365.546.604 1.167.7 1.817a10.308 10.308 0 0 1-.86-.195 6.248 6.248 0 0 1-.757-.252 2.37 2.37 0 0 1-.645-.42l-.066-.06c-.55-.55-.994-1.472-1.32-2.47-.023-.113-.058-.22-.072-.341ZM29.28 31.868c-.327 1.002-.758 1.921-1.32 2.47l-.066.066-.096.08a2.37 2.37 0 0 1-.55.338c-.247.1-.5.184-.757.252-.275.08-.571.143-.86.195.1-.65.343-1.27.712-1.814.717-1.01 1.8-1.7 3.02-1.922 0 .118-.05.223-.083.335Z" fill="#fff"/><path d="M27.86 25.297a.343.343 0 0 0 .404-.233c.05-.187 1.266-4.469 7.274-4.666-.35 1.468-1.762 6.36-5.036 6.565a.34.34 0 0 0-.316.297 25.929 25.929 0 0 1-.61 3.532c-.782.107-2.646.55-3.81 2.27a5.158 5.158 0 0 0-.861 2.584.346.346 0 0 0 .202.343c.044.02.09.03.138.03h.041c.47-.057.935-.149 1.392-.275.29-.073.573-.164.85-.274l.064-.033v5.99l-4.455 4.446h-1.271L17.4 41.41v-5.99l.063.033c.276.111.56.203.848.275.457.127.924.218 1.395.274h.05a.343.343 0 0 0 .34-.365 5.16 5.16 0 0 0-.862-2.583c-1.164-1.726-3.02-2.163-3.81-2.27a25.653 25.653 0 0 1-.61-3.524.343.343 0 0 0-.32-.313c-3.278-.198-4.692-5.09-5.043-6.55 6.006.195 7.224 4.477 7.274 4.667a.343.343 0 0 0 .414.244c2.01-.519 5.328-.519 5.361-.519.033 0 3.352 0 5.36.508Z" fill="url(#C)"/><path d="M42.733 14.062c-.017.228-.036.456-.06.68l-.036.355a.517.517 0 0 1-.033.162l-.154.241a.293.293 0 0 1-.275.135 2.592 2.592 0 0 0-.474.027l-.173.02-8.46.971a.335.335 0 0 0-.206.102l-2.597 2.673-4.232 4.87a31.135 31.135 0 0 0-1.675-.137l4.76-5.46a.338.338 0 0 0 .077-.302l-.486-2.083a1.099 1.099 0 0 0-.041-.124.766.766 0 0 1-.025-.074.757.757 0 0 1 0-.077l.05-.549c.032-.324.068-.648.112-.969 0-.044 0-.09.02-.137l.076.12c.179.275.357.55.522.824l.274.472c.017.023.03.048.041.075a.565.565 0 0 1 0 .07c0 .045 0 .086.02.14l.21.912a.348.348 0 0 0 .18.225.352.352 0 0 0 .274 0l.041-.016a.354.354 0 0 0 .126-.09l1.507-1.714a.447.447 0 0 0 .066-.11l2.446-6.7a.55.55 0 0 1 .26-.299l2.353-1.23c.137-.071.275-.145.409-.225a.349.349 0 0 0 .096-.082l.225-.275c.135-.173.275-.345.415-.513l.376-.445-.03.58c-.014.236-.034.469-.053.705l-.035.387v.104a.717.717 0 0 1-.025.165l-.041.099a.328.328 0 0 1-.19.184 5.501 5.501 0 0 0-.637.296l-2.055 1.06a.332.332 0 0 0-.165.186L33.48 15.01a.341.341 0 0 0 .186.418.342.342 0 0 0 .162.03l7.595-.873.198-.022a.352.352 0 0 0 .22-.11l.057-.063c.151-.168.308-.335.461-.494l.407-.412-.033.58Z" fill="url(#D)"/><path d="M43.27 12.366c-.059-.026-.125-.036-.19-.026a.345.345 0 0 0-.174.079c-.143.126-.275.252-.415.381l-.623.623c-.15.16-.302.319-.45.48h-.082l-7.033.818 1.826-5.07 1.921-1.01c.177-.102.36-.194.549-.274a1.02 1.02 0 0 0 .58-.566l.04-.098c.045-.119.07-.244.075-.37v-.089l.038-.403c.02-.239.038-.48.055-.725l.038-.76v-.772a.343.343 0 0 0-.59-.233c-.129.135-.25.275-.373.406l-.643.75c-.145.175-.274.351-.425.527l-.19.241c-.104.06-.21.116-.318.173l-2.355 1.23a1.235 1.235 0 0 0-.587.675l-2.389 6.64-1.059 1.205-.06-.274a.888.888 0 0 0-.148-.508l-.275-.467c-.173-.274-.354-.562-.535-.823-.181-.261-.363-.55-.582-.824a.342.342 0 0 0-.612.143c-.066.36-.118.689-.157 1-.038.31-.082.655-.115.993l-.047.549a.821.821 0 0 0 .055.464l.02.05.441 1.899-4.998 5.723c-.55-.02-.939-.02-.983-.02-.044 0-.423 0-.983.02l-5.004-5.74.44-1.886a.56.56 0 0 1 .022-.063.821.821 0 0 0 .052-.453l-.047-.549a25.577 25.577 0 0 0-.272-1.99.34.34 0 0 0-.274-.274.336.336 0 0 0-.352.129 24.27 24.27 0 0 0-.579.823c-.173.256-.365.55-.549.84l-.274.467a.878.878 0 0 0-.148.44v.051l-.063.275-1.06-1.205-2.388-6.64a1.235 1.235 0 0 0-.588-.676L8.095 6.454c-.107-.055-.214-.11-.319-.17l-.178-.228a54.856 54.856 0 0 0-.44-.55l-.49-.581-.149-.162c-.12-.137-.244-.275-.376-.41a.343.343 0 0 0-.587.234v.55l.05.987c.013.242.032.483.051.722l.039.412v.082c.004.126.03.25.074.368l.041.102a1.024 1.024 0 0 0 .58.562c.188.08.371.172.548.275l1.922 1.01 1.836 5.064-7.024-.807h-.09c-.15-.162-.3-.32-.454-.483l-.502-.516-.115-.112a14.034 14.034 0 0 0-.418-.385.346.346 0 0 0-.568.256v.568l.047.873c.016.236.036.47.06.703l.036.329c.004.17.05.335.137.48l.157.245a.97.97 0 0 0 .88.447c.117 0 .234.008.35.025l.178.022 8.339.955 2.484 2.558 3.955 4.524c-.299.046-.593.099-.87.159-.439-1.126-2.347-4.864-8.256-4.864a.34.34 0 0 0-.341.253.349.349 0 0 0-.008.145c.259 1.25.661 2.466 1.2 3.623 1.097 2.32 2.569 3.66 4.273 3.893.156 1.445.442 2.874.857 4.268.038.14.077.274.12.42.187.549.624 1.855 1.584 2.679v6.574a.334.334 0 0 0 .102.242l4.666 4.666a.346.346 0 0 0 .245.101h1.553c.092 0 .18-.036.244-.101l4.667-4.666a.335.335 0 0 0 .101-.242v-6.574c.961-.824 1.397-2.125 1.584-2.68.047-.14.085-.274.124-.422.413-1.393.7-2.82.853-4.265 1.705-.234 3.176-1.573 4.274-3.893a16.546 16.546 0 0 0 1.194-3.615.344.344 0 0 0-.337-.406c-5.91 0-7.818 3.738-8.257 4.864a14.55 14.55 0 0 0-.87-.16l3.93-4.51 2.498-2.571 8.331-.955.19-.022c.114-.018.23-.026.345-.025a.983.983 0 0 0 .884-.45l.154-.239a1 1 0 0 0 .137-.472l.036-.343c.025-.23.044-.464.063-.706l.041-.71v-.725a.345.345 0 0 0-.19-.308Z" fill="url(#E)"/><path d="M2.632 8.144H.598A.598.598 0 0 0 0 8.742v2.034c0 .33.268.599.598.599h2.034c.33 0 .599-.268.599-.599V8.742a.598.598 0 0 0-.599-.598Z" fill="url(#F)"/><path d="M2.545 8.83H.686v1.858h1.859V8.83Z" fill="#fff"/><path d="M17.414 8.907H15.38a.598.598 0 0 0-.599.599v2.034c0 .33.268.598.599.598h2.034c.33 0 .598-.268.598-.598V9.506a.598.598 0 0 0-.598-.599Z" fill="url(#G)"/><path d="M17.326 9.594h-1.858v1.858h1.858V9.594Z" fill="#fff"/><path d="M6.958 0H4.924a.598.598 0 0 0-.598.598v2.034c0 .33.268.599.598.599h2.034c.33 0 .599-.268.599-.599V.598A.598.598 0 0 0 6.958 0Z" fill="url(#H)"/><path d="M6.87.687H5.013v1.858h1.859V.687Z" fill="#fff"/><path d="M44.402 8.144h-2.034a.598.598 0 0 0-.599.598v2.034c0 .33.268.599.599.599h2.034c.33 0 .598-.268.598-.599V8.742a.598.598 0 0 0-.598-.598Z" fill="url(#I)"/><path d="M44.314 8.83h-1.858v1.858h1.858V8.83Z" fill="#fff"/><path d="M29.618 8.907h-2.034a.598.598 0 0 0-.599.599v2.034c0 .33.268.598.599.598h2.034c.33 0 .598-.268.598-.598V9.506a.598.598 0 0 0-.598-.599Z" fill="url(#J)"/><path d="M29.53 9.594h-1.858v1.858h1.858V9.594Z" fill="#fff"/><path d="M40.076 0h-2.034a.598.598 0 0 0-.599.598v2.034c0 .33.268.599.599.599h2.034c.33 0 .598-.268.598-.599V.598A.598.598 0 0 0 40.076 0Z" fill="url(#K)"/><path d="M39.988.687H38.13v1.858h1.858V.687Z" fill="#fff"/><path d="m14.71 19.415-2.583-2.66a.335.335 0 0 0-.206-.101l-8.468-.972-.165-.02a2.58 2.58 0 0 0-.472-.027.297.297 0 0 1-.274-.134l-.154-.242a.522.522 0 0 1-.033-.173l-.035-.343a19.25 19.25 0 0 1-.06-.675l-.034-.577.401.407c.16.164.316.332.467.5l.057.062c.065.063.15.102.24.113.06 0 .12 0 .186.022l7.595.862a.33.33 0 0 0 .307-.13.334.334 0 0 0 .055-.326l-2.056-5.71a.338.338 0 0 0-.162-.186L7.27 8.045a5.49 5.49 0 0 0-.626-.299.33.33 0 0 1-.19-.184l-.04-.098a.697.697 0 0 1-.026-.165.9.9 0 0 0 0-.099l-.035-.392c-.02-.236-.039-.47-.052-.703l-.03-.582.376.442c.145.176.274.351.425.53l.214.274a.316.316 0 0 0 .096.085c.135.08.275.151.41.223l2.351 1.232a.549.549 0 0 1 .275.3l2.41 6.7c.015.04.036.077.063.11l1.507 1.712a.547.547 0 0 0 .168.107.337.337 0 0 0 .29 0 .347.347 0 0 0 .179-.23l.211-.917c0-.041 0-.082.017-.124a.408.408 0 0 1 0-.08.342.342 0 0 1 .038-.068l.275-.47c.167-.274.346-.548.527-.823l.074-.115c0 .05.014.096.02.143.043.315.081.64.112.96l.049.55a.405.405 0 0 1 0 .082.715.715 0 0 1-.022.071.914.914 0 0 0-.044.132l-.483 2.072a.344.344 0 0 0 .077.302l4.757 5.438a30.69 30.69 0 0 0-1.675.137l-4.257-4.883Z" fill="url(#L)"/><path d="M15.638 31.53a4.746 4.746 0 0 1 3.02 1.922c.365.546.604 1.167.7 1.817a10.308 10.308 0 0 1-.86-.195 6.248 6.248 0 0 1-.757-.252 2.37 2.37 0 0 1-.645-.42l-.066-.06c-.55-.55-.994-1.472-1.32-2.47-.023-.113-.058-.22-.072-.341ZM29.28 31.868c-.327 1.002-.758 1.921-1.32 2.47l-.066.066-.096.08a2.37 2.37 0 0 1-.55.338c-.247.1-.5.184-.757.252-.275.08-.571.143-.86.195.1-.65.343-1.27.712-1.814.717-1.01 1.8-1.7 3.02-1.922 0 .118-.05.223-.083.335Z" fill="#fff"/><path d="M27.86 25.297a.343.343 0 0 0 .404-.233c.05-.187 1.266-4.469 7.274-4.666-.35 1.468-1.762 6.36-5.036 6.565a.34.34 0 0 0-.316.297 25.929 25.929 0 0 1-.61 3.532c-.782.107-2.646.55-3.81 2.27a5.158 5.158 0 0 0-.861 2.584.346.346 0 0 0 .202.343c.044.02.09.03.138.03h.041c.47-.057.935-.149 1.392-.275.29-.073.573-.164.85-.274l.064-.033v5.99l-4.455 4.446h-1.271L17.4 41.41v-5.99l.063.033c.276.111.56.203.848.275.457.127.924.218 1.395.274h.05a.343.343 0 0 0 .34-.365 5.16 5.16 0 0 0-.862-2.583c-1.164-1.726-3.02-2.163-3.81-2.27a25.653 25.653 0 0 1-.61-3.524.343.343 0 0 0-.32-.313c-3.278-.198-4.692-5.09-5.043-6.55 6.006.195 7.224 4.477 7.274 4.667a.343.343 0 0 0 .414.244c2.01-.519 5.328-.519 5.361-.519.033 0 3.352 0 5.36.508Z" fill="url(#M)"/><path d="M42.733 14.062c-.017.228-.036.456-.06.68l-.036.355a.517.517 0 0 1-.033.162l-.154.241a.293.293 0 0 1-.275.135 2.592 2.592 0 0 0-.474.027l-.173.02-8.46.971a.335.335 0 0 0-.206.102l-2.597 2.673-4.232 4.87a31.135 31.135 0 0 0-1.675-.137l4.76-5.46a.338.338 0 0 0 .077-.302l-.486-2.083a1.099 1.099 0 0 0-.041-.124.766.766 0 0 1-.025-.074.757.757 0 0 1 0-.077l.05-.549c.032-.324.068-.648.112-.969 0-.044 0-.09.02-.137l.076.12c.179.275.357.55.522.824l.274.472c.017.023.03.048.041.075a.565.565 0 0 1 0 .07c0 .045 0 .086.02.14l.21.912a.348.348 0 0 0 .18.225.352.352 0 0 0 .274 0l.041-.016a.354.354 0 0 0 .126-.09l1.507-1.714a.447.447 0 0 0 .066-.11l2.446-6.7a.55.55 0 0 1 .26-.299l2.353-1.23c.137-.071.275-.145.409-.225a.349.349 0 0 0 .096-.082l.225-.275c.135-.173.275-.345.415-.513l.376-.445-.03.58c-.014.236-.034.469-.053.705l-.035.387v.104a.717.717 0 0 1-.025.165l-.041.099a.328.328 0 0 1-.19.184 5.501 5.501 0 0 0-.637.296l-2.055 1.06a.332.332 0 0 0-.165.186L33.48 15.01a.341.341 0 0 0 .186.418.342.342 0 0 0 .162.03l7.595-.873.198-.022a.352.352 0 0 0 .22-.11l.057-.063c.151-.168.308-.335.461-.494l.407-.412-.033.58Z" fill="url(#N)"/><defs><radialGradient id="a" cx="0" cy="0" r="1" gradientUnits="userSpaceOnUse" gradientTransform="rotate(125.933 8.553 11.017) scale(27.5903 26.6013)"><stop offset=".06" stop-color="#FF75A9" stop-opacity=".287"/><stop offset=".57" stop-color="#FF8A82" stop-opacity=".15"/><stop offset=".885" stop-color="#FF56E4" stop-opacity=".49"/></radialGradient><radialGradient id="b" cx="0" cy="0" r="1" gradientUnits="userSpaceOnUse" gradientTransform="matrix(-1.24742 1.7057 -1.64912 -1.20604 1.615 8.626)"><stop offset=".06" stop-color="#FF75A9" stop-opacity=".287"/><stop offset=".57" stop-color="#FF8A82" stop-opacity=".15"/><stop offset=".885" stop-color="#FF56E4" stop-opacity=".49"/></radialGradient><radialGradient id="c" cx="0" cy="0" r="1" gradientUnits="userSpaceOnUse" gradientTransform="matrix(-1.24742 1.7057 -1.64912 -1.20604 16.397 9.389)"><stop offset=".06" stop-color="#FF75A9" stop-opacity=".287"/><stop offset=".57" stop-color="#FF8A82" stop-opacity=".15"/><stop offset=".885" stop-color="#FF56E4" stop-opacity=".49"/></radialGradient><radialGradient id="d" cx="0" cy="0" r="1" gradientUnits="userSpaceOnUse" gradientTransform="matrix(-1.24742 1.7057 -1.64912 -1.20604 5.941 .482)"><stop offset=".06" stop-color="#FF75A9" stop-opacity=".287"/><stop offset=".57" stop-color="#FF8A82" stop-opacity=".15"/><stop offset=".885" stop-color="#FF56E4" stop-opacity=".49"/></radialGradient><radialGradient id="e" cx="0" cy="0" r="1" gradientUnits="userSpaceOnUse" gradientTransform="matrix(-1.24742 1.7057 -1.64912 -1.20604 43.385 8.626)"><stop offset=".06" stop-color="#FF75A9" stop-opacity=".287"/><stop offset=".57" stop-color="#FF8A82" stop-opacity=".15"/><stop offset=".885" stop-color="#FF56E4" stop-opacity=".49"/></radialGradient><radialGradient id="f" cx="0" cy="0" r="1" gradientUnits="userSpaceOnUse" gradientTransform="matrix(-1.24742 1.7057 -1.64912 -1.20604 28.6 9.389)"><stop offset=".06" stop-color="#FF75A9" stop-opacity=".287"/><stop offset=".57" stop-color="#FF8A82" stop-opacity=".15"/><stop offset=".885" stop-color="#FF56E4" stop-opacity=".49"/></radialGradient><radialGradient id="g" cx="0" cy="0" r="1" gradientUnits="userSpaceOnUse" gradientTransform="matrix(-1.24742 1.7057 -1.64912 -1.20604 39.059 .482)"><stop offset=".06" stop-color="#FF75A9" stop-opacity=".287"/><stop offset=".57" stop-color="#FF8A82" stop-opacity=".15"/><stop offset=".885" stop-color="#FF56E4" stop-opacity=".49"/></radialGradient><radialGradient id="h" cx="0" cy="0" r="1" gradientUnits="userSpaceOnUse" gradientTransform="rotate(125.653 3.581 7.096) scale(12.1989 11.7234)"><stop offset=".06" stop-color="#FF75A9" stop-opacity=".287"/><stop offset=".57" stop-color="#FF8A82" stop-opacity=".15"/><stop offset=".885" stop-color="#FF56E4" stop-opacity=".49"/></radialGradient><radialGradient id="i" cx="0" cy="0" r="1" gradientUnits="userSpaceOnUse" gradientTransform="rotate(126.83 5.193 17.726) scale(16.8035 16.3593)"><stop offset=".06" stop-color="#FF75A9" stop-opacity=".287"/><stop offset=".57" stop-color="#FF8A82" stop-opacity=".15"/><stop offset=".885" stop-color="#FF56E4" stop-opacity=".49"/></radialGradient><radialGradient id="j" cx="0" cy="0" r="1" gradientUnits="userSpaceOnUse" gradientTransform="rotate(125.645 14.644 12.778) scale(12.1959 11.7194)"><stop offset=".06" stop-color="#FF75A9" stop-opacity=".287"/><stop offset=".57" stop-color="#FF8A82" stop-opacity=".15"/><stop offset=".885" stop-color="#FF56E4" stop-opacity=".49"/></radialGradient><radialGradient id="u" cx="0" cy="0" r="1" gradientUnits="userSpaceOnUse" gradientTransform="rotate(125.933 8.553 11.017) scale(27.5903 26.6013)"><stop offset=".06" stop-color="#FF75A9" stop-opacity=".287"/><stop offset=".57" stop-color="#FF8A82" stop-opacity=".15"/><stop offset=".885" stop-color="#FF56E4" stop-opacity=".49"/></radialGradient><radialGradient id="v" cx="0" cy="0" r="1" gradientUnits="userSpaceOnUse" gradientTransform="matrix(-1.24742 1.7057 -1.64912 -1.20604 1.615 8.626)"><stop offset=".06" stop-color="#FF75A9" stop-opacity=".287"/><stop offset=".57" stop-color="#FF8A82" stop-opacity=".15"/><stop offset=".885" stop-color="#FF56E4" stop-opacity=".49"/></radialGradient><radialGradient id="w" cx="0" cy="0" r="1" gradientUnits="userSpaceOnUse" gradientTransform="matrix(-1.24742 1.7057 -1.64912 -1.20604 16.397 9.389)"><stop offset=".06" stop-color="#FF75A9" stop-opacity=".287"/><stop offset=".57" stop-color="#FF8A82" stop-opacity=".15"/><stop offset=".885" stop-color="#FF56E4" stop-opacity=".49"/></radialGradient><radialGradient id="x" cx="0" cy="0" r="1" gradientUnits="userSpaceOnUse" gradientTransform="matrix(-1.24742 1.7057 -1.64912 -1.20604 5.941 .482)"><stop offset=".06" stop-color="#FF75A9" stop-opacity=".287"/><stop offset=".57" stop-color="#FF8A82" stop-opacity=".15"/><stop offset=".885" stop-color="#FF56E4" stop-opacity=".49"/></radialGradient><radialGradient id="y" cx="0" cy="0" r="1" gradientUnits="userSpaceOnUse" gradientTransform="matrix(-1.24742 1.7057 -1.64912 -1.20604 43.385 8.626)"><stop offset=".06" stop-color="#FF75A9" stop-opacity=".287"/><stop offset=".57" stop-color="#FF8A82" stop-opacity=".15"/><stop offset=".885" stop-color="#FF56E4" stop-opacity=".49"/></radialGradient><radialGradient id="z" cx="0" cy="0" r="1" gradientUnits="userSpaceOnUse" gradientTransform="matrix(-1.24742 1.7057 -1.64912 -1.20604 28.6 9.389)"><stop offset=".06" stop-color="#FF75A9" stop-opacity=".287"/><stop offset=".57" stop-color="#FF8A82" stop-opacity=".15"/><stop offset=".885" stop-color="#FF56E4" stop-opacity=".49"/></radialGradient><radialGradient id="A" cx="0" cy="0" r="1" gradientUnits="userSpaceOnUse" gradientTransform="matrix(-1.24742 1.7057 -1.64912 -1.20604 39.059 .482)"><stop offset=".06" stop-color="#FF75A9" stop-opacity=".287"/><stop offset=".57" stop-color="#FF8A82" stop-opacity=".15"/><stop offset=".885" stop-color="#FF56E4" stop-opacity=".49"/></radialGradient><radialGradient id="B" cx="0" cy="0" r="1" gradientUnits="userSpaceOnUse" gradientTransform="rotate(125.653 3.581 7.096) scale(12.1989 11.7234)"><stop offset=".06" stop-color="#FF75A9" stop-opacity=".287"/><stop offset=".57" stop-color="#FF8A82" stop-opacity=".15"/><stop offset=".885" stop-color="#FF56E4" stop-opacity=".49"/></radialGradient><radialGradient id="C" cx="0" cy="0" r="1" gradientUnits="userSpaceOnUse" gradientTransform="rotate(126.83 5.193 17.726) scale(16.8035 16.3593)"><stop offset=".06" stop-color="#FF75A9" stop-opacity=".287"/><stop offset=".57" stop-color="#FF8A82" stop-opacity=".15"/><stop offset=".885" stop-color="#FF56E4" stop-opacity=".49"/></radialGradient><radialGradient id="D" cx="0" cy="0" r="1" gradientUnits="userSpaceOnUse" gradientTransform="rotate(125.645 14.644 12.778) scale(12.1959 11.7194)"><stop offset=".06" stop-color="#FF75A9" stop-opacity=".287"/><stop offset=".57" stop-color="#FF8A82" stop-opacity=".15"/><stop offset=".885" stop-color="#FF56E4" stop-opacity=".49"/></radialGradient><linearGradient id="k" x1="49.952" y1="2.125" x2="16.716" y2="36.222" gradientUnits="userSpaceOnUse"><stop stop-color="#3EC6EB" stop-opacity=".79"/><stop offset="1" stop-color="#3EC6EB" stop-opacity=".34"/></linearGradient><linearGradient id="l" x1="3.731" y1="7.982" x2="1.194" y2="10.608" gradientUnits="userSpaceOnUse"><stop stop-color="#3EC6EB" stop-opacity=".79"/><stop offset="1" stop-color="#3EC6EB" stop-opacity=".34"/></linearGradient><linearGradient id="m" x1="18.512" y1="8.745" x2="15.975" y2="11.371" gradientUnits="userSpaceOnUse"><stop stop-color="#3EC6EB" stop-opacity=".79"/><stop offset="1" stop-color="#3EC6EB" stop-opacity=".34"/></linearGradient><linearGradient id="n" x1="8.057" y1="-.162" x2="5.52" y2="2.464" gradientUnits="userSpaceOnUse"><stop stop-color="#3EC6EB" stop-opacity=".79"/><stop offset="1" stop-color="#3EC6EB" stop-opacity=".34"/></linearGradient><linearGradient id="o" x1="45.5" y1="7.982" x2="42.963" y2="10.608" gradientUnits="userSpaceOnUse"><stop stop-color="#3EC6EB" stop-opacity=".79"/><stop offset="1" stop-color="#3EC6EB" stop-opacity=".34"/></linearGradient><linearGradient id="p" x1="30.716" y1="8.745" x2="28.179" y2="11.371" gradientUnits="userSpaceOnUse"><stop stop-color="#3EC6EB" stop-opacity=".79"/><stop offset="1" stop-color="#3EC6EB" stop-opacity=".34"/></linearGradient><linearGradient id="q" x1="41.174" y1="-.162" x2="38.637" y2="2.464" gradientUnits="userSpaceOnUse"><stop stop-color="#3EC6EB" stop-opacity=".79"/><stop offset="1" stop-color="#3EC6EB" stop-opacity=".34"/></linearGradient><linearGradient id="r" x1="23.493" y1="4.581" x2="8.742" y2="19.558" gradientUnits="userSpaceOnUse"><stop stop-color="#3EC6EB" stop-opacity=".79"/><stop offset="1" stop-color="#3EC6EB" stop-opacity=".34"/></linearGradient><linearGradient id="s" x1="39.577" y1="19.119" x2="19.595" y2="40.302" gradientUnits="userSpaceOnUse"><stop stop-color="#3EC6EB" stop-opacity=".79"/><stop offset="1" stop-color="#3EC6EB" stop-opacity=".34"/></linearGradient><linearGradient id="t" x1="45.615" y1="4.584" x2="30.867" y2="19.554" gradientUnits="userSpaceOnUse"><stop stop-color="#3EC6EB" stop-opacity=".79"/><stop offset="1" stop-color="#3EC6EB" stop-opacity=".34"/></linearGradient><linearGradient id="E" x1="49.952" y1="2.125" x2="16.716" y2="36.222" gradientUnits="userSpaceOnUse"><stop stop-color="#3EC6EB" stop-opacity=".79"/><stop offset="1" stop-color="#3EC6EB" stop-opacity=".34"/></linearGradient><linearGradient id="F" x1="3.731" y1="7.982" x2="1.194" y2="10.608" gradientUnits="userSpaceOnUse"><stop stop-color="#3EC6EB" stop-opacity=".79"/><stop offset="1" stop-color="#3EC6EB" stop-opacity=".34"/></linearGradient><linearGradient id="G" x1="18.512" y1="8.745" x2="15.975" y2="11.371" gradientUnits="userSpaceOnUse"><stop stop-color="#3EC6EB" stop-opacity=".79"/><stop offset="1" stop-color="#3EC6EB" stop-opacity=".34"/></linearGradient><linearGradient id="H" x1="8.057" y1="-.162" x2="5.52" y2="2.464" gradientUnits="userSpaceOnUse"><stop stop-color="#3EC6EB" stop-opacity=".79"/><stop offset="1" stop-color="#3EC6EB" stop-opacity=".34"/></linearGradient><linearGradient id="I" x1="45.5" y1="7.982" x2="42.963" y2="10.608" gradientUnits="userSpaceOnUse"><stop stop-color="#3EC6EB" stop-opacity=".79"/><stop offset="1" stop-color="#3EC6EB" stop-opacity=".34"/></linearGradient><linearGradient id="J" x1="30.716" y1="8.745" x2="28.179" y2="11.371" gradientUnits="userSpaceOnUse"><stop stop-color="#3EC6EB" stop-opacity=".79"/><stop offset="1" stop-color="#3EC6EB" stop-opacity=".34"/></linearGradient><linearGradient id="K" x1="41.174" y1="-.162" x2="38.637" y2="2.464" gradientUnits="userSpaceOnUse"><stop stop-color="#3EC6EB" stop-opacity=".79"/><stop offset="1" stop-color="#3EC6EB" stop-opacity=".34"/></linearGradient><linearGradient id="L" x1="23.493" y1="4.581" x2="8.742" y2="19.558" gradientUnits="userSpaceOnUse"><stop stop-color="#3EC6EB" stop-opacity=".79"/><stop offset="1" stop-color="#3EC6EB" stop-opacity=".34"/></linearGradient><linearGradient id="M" x1="39.577" y1="19.119" x2="19.595" y2="40.302" gradientUnits="userSpaceOnUse"><stop stop-color="#3EC6EB" stop-opacity=".79"/><stop offset="1" stop-color="#3EC6EB" stop-opacity=".34"/></linearGradient><linearGradient id="N" x1="45.615" y1="4.584" x2="30.867" y2="19.554" gradientUnits="userSpaceOnUse"><stop stop-color="#3EC6EB" stop-opacity=".79"/><stop offset="1" stop-color="#3EC6EB" stop-opacity=".34"/></linearGradient></defs></svg>