<svg xmlns="http://www.w3.org/2000/svg" viewBox="0 0 196 169"><defs><style>.cls-1{fill:#ffffff}.cls-2{fill:#1e4489}</style></defs><g id="Symbol"><path class="cls-1" d="M.26 168.32l5.79-29.91h3.59l7.67 20.15 7.63-20.15h3.59l5.81 29.91h-4.53l-3.87-20-7.16 18.89h-3L8.65 148.3l-3.86 20zM38.54 168.32v-29.91h18.57v4.44H43v7.22h11.36v4.45H43v9.36h14.11v4.44zM84.8 138.41v4.44h-9.53v25.47h-4.45v-25.47h-9.51v-4.44zM101.12 158.2l-5.06-13.9-5 13.9-1.64 4.44-2.05 5.68h-4.78l10.88-29.91h5.19l10.88 29.91h-4.7l-2.07-5.68zM124.52 168.88a13.6 13.6 0 01-5.7-1.21 14.69 14.69 0 01-4.7-3.33 15.75 15.75 0 01-3.16-5 16.49 16.49 0 010-12 15.75 15.75 0 013.16-5 14.69 14.69 0 014.7-3.33 14.06 14.06 0 0112.39.48 15.07 15.07 0 015.06 4.49l-4 2.11a10.33 10.33 0 00-3.44-2.8 9.56 9.56 0 00-4.36-1 9.27 9.27 0 00-4 .87 10.56 10.56 0 00-3.27 2.4 10.94 10.94 0 00-2.21 3.52 12 12 0 000 8.56 11.23 11.23 0 002.22 3.53 10.57 10.57 0 003.28 2.39 9.24 9.24 0 004 .86 9.44 9.44 0 004.39-1.05 10.27 10.27 0 003.41-2.81l4 2.16a15.12 15.12 0 01-5.06 4.47 13.67 13.67 0 01-6.71 1.69zM153.56 168.88a13.6 13.6 0 01-5.7-1.21 14.83 14.83 0 01-4.7-3.34 15.88 15.88 0 01-3.19-5 16.31 16.31 0 010-12 15.88 15.88 0 013.19-4.95 14.83 14.83 0 014.7-3.34 14.1 14.1 0 0111.43 0 14.83 14.83 0 014.7 3.34 15.82 15.82 0 013.17 4.95 16.31 16.31 0 010 12 15.82 15.82 0 01-3.17 5 14.83 14.83 0 01-4.7 3.34 13.67 13.67 0 01-5.73 1.21zm0-4.45a9.31 9.31 0 004-.87 10.75 10.75 0 003.28-2.41 11.07 11.07 0 002.22-3.52 11.21 11.21 0 00.8-4.26 11.35 11.35 0 00-.8-4.28 11.17 11.17 0 00-2.22-3.54 10.69 10.69 0 00-3.28-2.39 9.66 9.66 0 00-8 0 10.63 10.63 0 00-3.28 2.41 11.28 11.28 0 00-2.23 3.52 11.5 11.5 0 002.23 12.08 10.57 10.57 0 003.28 2.39 9.29 9.29 0 004 .87zM172.77 168.32v-29.91h4.81l13.72 21.88v-21.88h4.44v29.91H191l-13.8-21.88v21.88z"/><path class="cls-1" d="M97.65 157.45h-3.17a.4.4 0 00-.4.4V161a.4.4 0 00.4.4h3.17a.4.4 0 00.4-.4v-3.17a.4.4 0 00-.4-.4zM155.15 151.84H152a.4.4 0 00-.4.4v3.17a.39.39 0 00.4.39h3.17a.38.38 0 00.39-.39v-3.17a.39.39 0 00-.39-.4zM151.72 33.16a.92.92 0 00-1 .14c-.38.34-.74.68-1.1 1L148 36c-.4.42-.81.85-1.2 1.28h-.22l-18.8 2.16 4.87-13.55 5.15-2.69a14 14 0 011.47-.71A2.74 2.74 0 00140.8 21l.11-.27a3.19 3.19 0 00.19-1v-.24l.11-1.07c.05-.64.1-1.28.14-1.94l.1-2v-.59-1.48a.92.92 0 00-1.58-.62c-.35.35-.67.72-1 1.08l-1.71 2c-.39.47-.77.94-1.14 1.42l-.5.64-.86.46-6.29 3.29a3.27 3.27 0 00-1.57 1.8l-6.33 17.72-2.83 3.22-.16-.71a1.1 1.1 0 010-.18 3.34 3.34 0 00-.08-.49 2.4 2.4 0 00-.32-.68l-.76-1.25c-.46-.76-.94-1.51-1.43-2.23s-1-1.44-1.55-2.23a.91.91 0 00-.94-.35.92.92 0 00-.7.73c-.18 1-.31 1.84-.41 2.67s-.22 1.75-.31 2.65l-.13 1.45a2.19 2.19 0 000 .72 2.74 2.74 0 00.15.48l.05.13 1.18 5.08-13.38 15.36H93.6L80.23 49.24l1.17-5 .06-.17a2.35 2.35 0 00.14-.48 2.4 2.4 0 000-.75l-.13-1.46c-.09-.89-.19-1.78-.31-2.63s-.22-1.75-.4-2.75a.9.9 0 00-.69-.73.92.92 0 00-.94.35c-.58.78-1.09 1.51-1.55 2.22s-1 1.48-1.44 2.24l-.75 1.25a2.31 2.31 0 00-.31.65 3.09 3.09 0 00-.09.53.78.78 0 000 .13l-.17.75L72 40.2l-6.4-17.74a3.25 3.25 0 00-1.6-1.8l-6.29-3.29-.85-.46-.47-.61c-.39-.48-.77-1-1.18-1.45l-1.31-1.56-.39-.43c-.33-.37-.66-.73-1-1.09a.89.89 0 00-1-.21.91.91 0 00-.58.83v1.45l.12 2.66c0 .65.09 1.29.14 1.93l.1 1.1a1.5 1.5 0 010 .22 3.56 3.56 0 00.2 1l.11.27a2.75 2.75 0 001.55 1.5 12.34 12.34 0 011.47.71l5.16 2.69 4.92 13.53-18.78-2.15a1.9 1.9 0 00-.25 0c-.39-.43-.79-.86-1.21-1.3l-1.33-1.34-.31-.3c-.37-.35-.73-.69-1.12-1a.9.9 0 00-1-.14.88.88 0 00-.54.82v1.52l.12 2.34c.05.62.1 1.25.17 1.87l.09.88a2.73 2.73 0 00.46 1.23l.42.64a2.59 2.59 0 002.35 1.2 6.19 6.19 0 01.93.07l.48.05 22.24 2.56 6.64 6.83L84.6 65.32c-.8.12-1.58.26-2.33.42-1.17-3-6.26-13-22.06-13a.9.9 0 00-.7.33.92.92 0 00-.2.75 44.31 44.31 0 003.19 9.66c2.93 6.2 6.87 9.78 11.42 10.4a63.73 63.73 0 002.29 11.42c.1.37.2.75.32 1.12.5 1.48 1.67 5 4.23 7.16v17.56a.93.93 0 00.27.65l12.47 12.46a.91.91 0 00.65.27h4.15a.93.93 0 00.65-.27l12.46-12.46a.93.93 0 00.27-.65V93.58c2.57-2.2 3.74-5.68 4.23-7.16.13-.37.23-.75.33-1.13a64.59 64.59 0 002.29-11.4c4.55-.62 8.48-4.2 11.41-10.4a43.09 43.09 0 003.19-9.66.92.92 0 00-.19-.75.94.94 0 00-.71-.33c-15.79 0-20.88 10-22.06 13-.74-.16-1.52-.3-2.33-.42l10.51-12L125 46.4l22.25-2.55.51-.06a6.16 6.16 0 01.92-.07 2.61 2.61 0 002.36-1.2l.41-.64a2.61 2.61 0 00.37-1.26l.1-.91c.06-.62.11-1.25.16-1.89l.11-1.9v-.41-1.53a.92.92 0 00-.47-.82z"/><rect class="cls-1" x="36.1" y="21.88" width="8.63" height="8.63" rx="1.6"/><path class="cls-2" d="M37.94 23.72h4.97v4.97h-4.97z"/><rect class="cls-1" x="75.6" y="23.92" width="8.63" height="8.63" rx="1.6"/><path class="cls-2" d="M77.44 25.76h4.97v4.97h-4.97z"/><rect class="cls-1" x="47.67" y=".12" width="8.63" height="8.63" rx="1.6"/><path class="cls-2" d="M49.5 1.95h4.97v4.97H49.5z"/><rect class="cls-1" x="147.71" y="21.88" width="8.63" height="8.63" rx="1.6"/><path class="cls-2" d="M149.54 23.72h4.97v4.97h-4.97z"/><rect class="cls-1" x="108.21" y="23.92" width="8.63" height="8.63" rx="1.6"/><path class="cls-2" d="M110.04 25.76h4.97v4.97h-4.97z"/><rect class="cls-1" x="136.15" y=".12" width="8.63" height="8.63" rx="1.6"/><path class="cls-2" d="M137.98 1.95h4.97v4.97h-4.97z"/><path class="cls-1" d="M75.41 52l-6.9-7.1a.9.9 0 00-.55-.27L45.33 42h-.44a7.15 7.15 0 00-1.26-.08.78.78 0 01-.71-.36l-.41-.64a1.39 1.39 0 01-.09-.46l-.1-.92c-.06-.6-.11-1.21-.16-1.8l-.09-1.54 1.08 1.08c.42.45.84.89 1.25 1.34l.15.16a1.08 1.08 0 00.64.31h.5L66 41.44a.91.91 0 001-1.22L61.43 25a.87.87 0 00-.44-.5l-5.46-2.86a15.35 15.35 0 00-1.68-.8.86.86 0 01-.5-.49l-.11-.35a1.91 1.91 0 01-.07-.43v-.27l-.1-1c0-.63-.11-1.25-.14-1.88l-.08-1.55 1 1.18q.59.7 1.14 1.41l.57.73a1 1 0 00.26.23c.35.21.72.4 1.09.59l6.28 3.29a1.45 1.45 0 01.7.8L70.31 41a1.11 1.11 0 00.17.3l4 4.57a1.3 1.3 0 00.44.29.92.92 0 001.26-.65l.56-2.44v-.34a2.11 2.11 0 010-.21 1.74 1.74 0 01.11-.18l.75-1.25c.45-.74.93-1.47 1.41-2.19l.2-.31v.38c.12.84.22 1.7.3 2.56l.28 1.47a.79.79 0 010 .22 1.06 1.06 0 01-.06.19 3.78 3.78 0 00-.12.36l-1.28 5.53a.91.91 0 00.2.81l12.72 14.57c-1.37.07-2.91.19-4.46.36z"/><path class="cls-2" d="M77.85 84.36A12.78 12.78 0 0186 89.51a11.94 11.94 0 011.87 4.85 21.91 21.91 0 01-2.3-.52 16.48 16.48 0 01-2-.67 6.39 6.39 0 01-1.43-.9 2.75 2.75 0 01-.26-.22 1.37 1.37 0 01-.17-.17 16.7 16.7 0 01-3.53-6.6c-.18-.28-.26-.61-.33-.92zM114.34 85.27a16.74 16.74 0 01-3.53 6.61c-.06.06-.11.12-.17.17l-.26.22a6.46 6.46 0 01-1.44.9 16.35 16.35 0 01-2 .67 23.12 23.12 0 01-2.3.52 11.8 11.8 0 011.87-4.85 12.74 12.74 0 018.11-5.15c-.1.31-.19.64-.28.91z"/><path class="cls-1" d="M110.54 67.71a.92.92 0 001.11-.65c.13-.5 3.39-11.94 19.44-12.46-.94 3.92-4.71 17-13.46 17.54a.91.91 0 00-.85.83 70.1 70.1 0 01-1.63 9.44A14.79 14.79 0 00105 88.48a13.81 13.81 0 00-2.3 6.9.91.91 0 00.91 1h.11a24.49 24.49 0 003.72-.74 19.45 19.45 0 002.27-.76l.17-.09v16l-11.96 11.9h-3.39L82.6 110.76v-16l.16.09a20.1 20.1 0 002.27.76 25 25 0 003.72.74h.11a.92.92 0 00.92-1 13.72 13.72 0 00-2.31-6.9 14.79 14.79 0 00-10.18-6.07A69.16 69.16 0 0175.67 73a.91.91 0 00-.86-.83c-8.73-.58-12.51-13.65-13.45-17.57 16 .52 19.3 12 19.43 12.46a.92.92 0 001.11.65c5.37-1.34 14.23-1.36 14.32-1.36s8.96.02 14.32 1.36z"/><path class="cls-1" d="M150.28 37.69c0 .61-.09 1.22-.16 1.82l-.1 1a1.12 1.12 0 01-.08.43l-.41.64a.79.79 0 01-.71.36 7.15 7.15 0 00-1.26.08l-.47.05-22.6 2.6a.9.9 0 00-.55.27L117 52l-11.34 13c-1.55-.17-3.09-.29-4.47-.36l12.72-14.59a.94.94 0 00.2-.81l-1.29-5.57a3 3 0 00-.11-.32.59.59 0 01-.07-.2 1.48 1.48 0 010-.21l.13-1.46c.09-.87.19-1.73.31-2.59v-.36l.21.32c.48.71 1 1.44 1.4 2.17l.76 1.26a1.8 1.8 0 01.11.2v.19a2.93 2.93 0 00.05.37l.56 2.44a.93.93 0 00.48.6.9.9 0 00.77 0h.11a.94.94 0 00.34-.25l4-4.57a.92.92 0 00.18-.3l6.43-17.89a1.51 1.51 0 01.7-.81l6.37-3.26c.37-.2.74-.39 1.1-.6a1.13 1.13 0 00.26-.23l.59-.76c.37-.47.73-.93 1.11-1.38l1-1.18-.08 1.54c0 .64-.09 1.26-.14 1.89l-.1 1a2.64 2.64 0 000 .28 2 2 0 01-.07.44l-.11.27a.88.88 0 01-.51.49 15.18 15.18 0 00-1.67.8l-5.47 2.86a.9.9 0 00-.44.5l-5.49 15.27a.93.93 0 00.15.88.89.89 0 00.82.34l20.29-2.33.53-.06a.89.89 0 00.59-.3l.15-.16c.4-.45.82-.9 1.23-1.32l1.09-1.1z"/></g></svg>