<svg viewBox="0 0 13 12"  xmlns="http://www.w3.org/2000/svg"><path d="M6.097 12c3.367 0 6.096-2.686 6.096-6s-2.73-6-6.096-6C2.73 0 0 2.686 0 6s2.73 6 6.097 6Z" /><path d="M6.117 2.25c.286 0 .572.047.837.14.265.094.51.235.735.4.204.187.388.397.51.655.123.258.184.563.184.914 0 .282-.04.516-.122.727-.082.21-.184.398-.286.562a3.782 3.782 0 0 1-.388.446l-.408.398a2.679 2.679 0 0 0-.327.375.908.908 0 0 0-.163.422c-.02.07-.041.14-.082.211-.04.047-.102.094-.163.094H5.75c-.062 0-.123-.024-.184-.094-.061-.047-.082-.117-.061-.21.02-.282.061-.517.143-.728.081-.21.204-.398.326-.562.123-.164.266-.305.409-.445.142-.14.285-.258.408-.375a1.69 1.69 0 0 0 .306-.375.698.698 0 0 0 .122-.399.868.868 0 0 0-.285-.656 1.179 1.179 0 0 0-.776-.258c-.53 0-.898.305-1.143.89-.041.071-.061.141-.102.165-.041.047-.082.047-.164.047h-.734c-.062 0-.103-.024-.143-.07a.229.229 0 0 1-.062-.165c0-.234.082-.492.205-.75.122-.257.285-.492.51-.703.204-.21.449-.375.735-.515.224-.07.53-.141.857-.141Zm.368 6c.06 0 .122.023.183.094.041.047.082.117.082.21v.938c0 .07-.02.14-.082.211-.061.024-.102.047-.183.047h-.797c-.06 0-.122-.023-.183-.094a.318.318 0 0 1-.082-.21v-.938c0-.07.02-.14.082-.211a.246.246 0 0 1 .183-.094h.797v.047Z" fill="#fff"/></svg>