<svg width="18" height="18" viewBox="0 0 18 18" fill="none" xmlns="http://www.w3.org/2000/svg"><circle cx="9" cy="9" r="9" fill="#fff"/><path fill-rule="evenodd" clip-rule="evenodd" d="M6.552 6.868c.054-1.613 1.2-2.679 2.336-2.679 1.135 0 2.28 1.066 2.335 2.679H6.552Zm-1.575 0C5.033 4.677 6.64 2.7 8.887 2.7c2.247 0 3.855 1.977 3.912 4.168h.588c.435 0 .788.333.788.744v6.043c0 .412-.353.745-.788.745h-9c-.434 0-.787-.333-.787-.745V7.612c0-.41.353-.744.787-.744h.59Z" fill="#6FB0E8"/><path fill-rule="evenodd" clip-rule="evenodd" d="M9 9a.45.45 0 0 1 .45.45v1.8a.45.45 0 0 1-.9 0v-1.8A.45.45 0 0 1 9 9Z" fill="#fff"/></svg>