<svg width="30" height="30" fill="none" xmlns="http://www.w3.org/2000/svg"><g filter="url(#filter0_d)" fill-rule="evenodd" clip-rule="evenodd" shape-rendering="crispEdges"><path d="M15 4.667c-.212 0-.41.06-.578.166h1.156A1.078 1.078 0 0015 4.667zm-10.194.166h7.6a2.751 2.751 0 015.187 0h7.601c.445 0 .806.41.806.917 0 .506-.36.917-.806.917h-7.6a2.751 2.751 0 01-5.188 0h-7.6C4.36 6.667 4 6.257 4 5.75c0-.506.36-.917.806-.917zm10.194 2c.212 0 .41-.06.578-.166h-1.156c.168.105.366.166.578.166zm4.922 6.25a1.079 1.079 0 011.156 0h-1.156zm-2.015 0H4.806c-.445 0-.806.41-.806.917 0 .506.36.917.806.917h13.1a2.751 2.751 0 005.188 0h2.1c.445 0 .806-.41.806-.917 0-.506-.36-.917-.806-.917h-2.1a2.751 2.751 0 00-5.188 0zm3.17 1.834a1.078 1.078 0 01-1.155 0h1.156zM8.923 21.333a1.079 1.079 0 011.156 0H8.922zm-2.016 0h-2.1c-.445 0-.806.41-.806.917 0 .506.36.917.806.917h2.1a2.751 2.751 0 005.188 0h13.1c.445 0 .806-.41.806-.917 0-.506-.36-.917-.806-.917h-13.1a2.751 2.751 0 00-5.188 0zm3.172 1.834a1.078 1.078 0 01-1.156 0h1.156z" fill="url(#paint0_angular)"/><path d="M15 4.667c-.212 0-.41.06-.578.166h1.156A1.078 1.078 0 0015 4.667zm-10.194.166h7.6a2.751 2.751 0 015.187 0h7.601c.445 0 .806.41.806.917 0 .506-.36.917-.806.917h-7.6a2.751 2.751 0 01-5.188 0h-7.6C4.36 6.667 4 6.257 4 5.75c0-.506.36-.917.806-.917zm10.194 2c.212 0 .41-.06.578-.166h-1.156c.168.105.366.166.578.166zm4.922 6.25a1.079 1.079 0 011.156 0h-1.156zm-2.015 0H4.806c-.445 0-.806.41-.806.917 0 .506.36.917.806.917h13.1a2.751 2.751 0 005.188 0h2.1c.445 0 .806-.41.806-.917 0-.506-.36-.917-.806-.917h-2.1a2.751 2.751 0 00-5.188 0zm3.17 1.834a1.078 1.078 0 01-1.155 0h1.156zM8.923 21.333a1.079 1.079 0 011.156 0H8.922zm-2.016 0h-2.1c-.445 0-.806.41-.806.917 0 .506.36.917.806.917h2.1a2.751 2.751 0 005.188 0h13.1c.445 0 .806-.41.806-.917 0-.506-.36-.917-.806-.917h-13.1a2.751 2.751 0 00-5.188 0zm3.172 1.834a1.078 1.078 0 01-1.156 0h1.156z" fill="url(#paint1_linear)"/><path d="M15 4.667c-.212 0-.41.06-.578.166h1.156A1.078 1.078 0 0015 4.667zm-10.194.166h7.6a2.751 2.751 0 015.187 0h7.601c.445 0 .806.41.806.917 0 .506-.36.917-.806.917h-7.6a2.751 2.751 0 01-5.188 0h-7.6C4.36 6.667 4 6.257 4 5.75c0-.506.36-.917.806-.917zm10.194 2c.212 0 .41-.06.578-.166h-1.156c.168.105.366.166.578.166zm4.922 6.25a1.079 1.079 0 011.156 0h-1.156zm-2.015 0H4.806c-.445 0-.806.41-.806.917 0 .506.36.917.806.917h13.1a2.751 2.751 0 005.188 0h2.1c.445 0 .806-.41.806-.917 0-.506-.36-.917-.806-.917h-2.1a2.751 2.751 0 00-5.188 0zm3.17 1.834a1.078 1.078 0 01-1.155 0h1.156zM8.923 21.333a1.079 1.079 0 011.156 0H8.922zm-2.016 0h-2.1c-.445 0-.806.41-.806.917 0 .506.36.917.806.917h2.1a2.751 2.751 0 005.188 0h13.1c.445 0 .806-.41.806-.917 0-.506-.36-.917-.806-.917h-13.1a2.751 2.751 0 00-5.188 0zm3.172 1.834a1.078 1.078 0 01-1.156 0h1.156z" fill="url(#paint2_angular)"/><path d="M15 4.667c-.212 0-.41.06-.578.166h1.156A1.078 1.078 0 0015 4.667zm-10.194.166h7.6a2.751 2.751 0 015.187 0h7.601c.445 0 .806.41.806.917 0 .506-.36.917-.806.917h-7.6a2.751 2.751 0 01-5.188 0h-7.6C4.36 6.667 4 6.257 4 5.75c0-.506.36-.917.806-.917zm10.194 2c.212 0 .41-.06.578-.166h-1.156c.168.105.366.166.578.166zm4.922 6.25a1.079 1.079 0 011.156 0h-1.156zm-2.015 0H4.806c-.445 0-.806.41-.806.917 0 .506.36.917.806.917h13.1a2.751 2.751 0 005.188 0h2.1c.445 0 .806-.41.806-.917 0-.506-.36-.917-.806-.917h-2.1a2.751 2.751 0 00-5.188 0zm3.17 1.834a1.078 1.078 0 01-1.155 0h1.156zM8.923 21.333a1.079 1.079 0 011.156 0H8.922zm-2.016 0h-2.1c-.445 0-.806.41-.806.917 0 .506.36.917.806.917h2.1a2.751 2.751 0 005.188 0h13.1c.445 0 .806-.41.806-.917 0-.506-.36-.917-.806-.917h-13.1a2.751 2.751 0 00-5.188 0zm3.172 1.834a1.078 1.078 0 01-1.156 0h1.156z" fill="url(#paint3_linear)"/></g><path d="M15 4.667a1.083 1.083 0 100 2.166 1.083 1.083 0 000-2.166zM20.5 12.917a1.083 1.083 0 100 2.166 1.083 1.083 0 000-2.166zM9.5 21.167a1.083 1.083 0 100 2.166 1.083 1.083 0 000-2.166z" fill="#fff"/><defs><radialGradient id="paint0_angular" cx="0" cy="0" r="1" gradientUnits="userSpaceOnUse" gradientTransform="rotate(126.179 5.906 6.946) scale(14.3896 13.9124)"><stop offset=".06" stop-color="#FF75A9" stop-opacity=".287"/><stop offset=".57" stop-color="#FF8A82" stop-opacity=".15"/><stop offset=".885" stop-color="#FF56E4" stop-opacity=".49"/></radialGradient><radialGradient id="paint2_angular" cx="0" cy="0" r="1" gradientUnits="userSpaceOnUse" gradientTransform="rotate(126.179 5.906 6.946) scale(14.3896 13.9124)"><stop offset=".06" stop-color="#FF75A9" stop-opacity=".287"/><stop offset=".57" stop-color="#FF8A82" stop-opacity=".15"/><stop offset=".885" stop-color="#FF56E4" stop-opacity=".49"/></radialGradient><linearGradient id="paint1_linear" x1="29.406" y1="1.896" x2="12.13" y2="19.78" gradientUnits="userSpaceOnUse"><stop stop-color="#3EC6EB" stop-opacity=".79"/><stop offset="1" stop-color="#3EC6EB" stop-opacity=".34"/></linearGradient><linearGradient id="paint3_linear" x1="29.406" y1="1.896" x2="12.13" y2="19.78" gradientUnits="userSpaceOnUse"><stop stop-color="#3EC6EB" stop-opacity=".79"/><stop offset="1" stop-color="#3EC6EB" stop-opacity=".34"/></linearGradient><filter id="filter0_d" x="0" y="0" width="30" height="30" filterUnits="userSpaceOnUse" color-interpolation-filters="sRGB"><feFlood flood-opacity="0" result="BackgroundImageFix"/><feColorMatrix in="SourceAlpha" values="0 0 0 0 0 0 0 0 0 0 0 0 0 0 0 0 0 0 127 0" result="hardAlpha"/><feOffset dy="1"/><feGaussianBlur stdDeviation="2"/><feComposite in2="hardAlpha" operator="out"/><feColorMatrix values="0 0 0 0 0.670588 0 0 0 0 0.670588 0 0 0 0 0.670588 0 0 0 0.8 0"/><feBlend in2="BackgroundImageFix" result="effect1_dropShadow"/><feBlend in="SourceGraphic" in2="effect1_dropShadow" result="shape"/></filter></defs></svg>