<svg width="18" height="18" viewBox="0 0 18 18" fill="none" xmlns="http://www.w3.org/2000/svg"><circle cx="9" cy="9" r="9" fill="#fff"/><path fill-rule="evenodd" clip-rule="evenodd" d="M8.55 9a.45.45 0 0 1 .45.45v1.8a.45.45 0 0 1-.9 0v-1.8A.45.45 0 0 1 8.55 9Z" fill="#fff"/><path fill-rule="evenodd" clip-rule="evenodd" d="m12.923 6.55 3.595 2.355-3.595 2.355V9.889H7.666a.984.984 0 0 1 0-1.967h5.257V6.55Z" fill="#6FB0E8"/><path d="M9.575 3.6h-5.2a1 1 0 0 0-1 1v8.8a1 1 0 0 0 1 1h5.2a1 1 0 0 0 1-1V4.6a1 1 0 0 0-1-1Z" fill="#6FB0E8"/><mask id="a" style="mask-type:alpha" maskUnits="userSpaceOnUse" x="6" y="6" width="11" height="6"><path fill-rule="evenodd" clip-rule="evenodd" d="m12.923 6.55 3.595 2.355-3.595 2.355V9.889H7.666a.984.984 0 0 1 0-1.967h5.257V6.55Z" fill="#000"/></mask><g mask="url(#a)"><path d="M9.56 3.6H4.733a1 1 0 0 0-1 1v8.596a1 1 0 0 0 1 1h4.829a1 1 0 0 0 1-1V4.6a1 1 0 0 0-1-1Z" fill="#fff"/></g></svg>