<svg viewBox="0 0 24 24" fill="none" xmlns="http://www.w3.org/2000/svg">
  <circle cx="12" cy="12" r="12" fill="#6FB0E8"/>
  <path fill-rule="evenodd" clip-rule="evenodd" d="M11.63 6.54a.875.875 0 0 1 .957-.786 6.365 6.365 0 0 1 3.839 10.877l.613 1.257-4.537-.316 2.543-3.771.554 1.135a4.616 4.616 0 0 0-3.183-7.44.875.875 0 0 1-.785-.956Zm-4.838-.232 4.538.317-2.543 3.771-.554-1.135a4.615 4.615 0 0 0 3.182 7.441.875.875 0 1 1-.17 1.742A6.364 6.364 0 0 1 7.406 7.566l-.614-1.258Zm5.614 3.473a2.468 2.468 0 1 0 1.264 4.164.875.875 0 1 0-1.238-1.236.718.718 0 1 1 0-1.015.875.875 0 1 0 1.238-1.237 2.468 2.468 0 0 0-1.264-.676Z" fill="#fff"/>
</svg>
